<?xml version="1.0" encoding="UTF-8" standalone="no"?>
<!DOCTYPE svg PUBLIC "-//W3C//DTD SVG 1.1//EN" "http://www.w3.org/Graphics/SVG/1.1/DTD/svg11.dtd">
<svg width="100%" height="100%" viewBox="0 0 5100 1300" version="1.1" xmlns="http://www.w3.org/2000/svg" xmlns:xlink="http://www.w3.org/1999/xlink" xml:space="preserve" xmlns:serif="http://www.serif.com/" style="fill-rule:evenodd;clip-rule:evenodd;stroke-linecap:round;stroke-linejoin:round;stroke-miterlimit:1.5;">
    <g transform="matrix(0.82999,0,0,0.82708,-694.984,112.38)">
        <g transform="matrix(1,0,0,1,837,-136)">
            <g transform="matrix(1,0,0,1,0.937227,0)">
                <path d="M0,0L0,869C0,901.793 -1.936,935.364 1.17,968C7.932,1039.06 25.829,1108.24 53.424,1174C82.182,1242.53 124.755,1307.18 175.961,1361C239.961,1428.27 315.414,1482.95 401,1519.57C632.405,1618.6 908.989,1574.24 1098,1408.16C1148.49,1363.78 1192.92,1311.83 1227.4,1254C1277.56,1169.85 1309.49,1074.7 1318.83,977C1327.57,885.599 1324,792.852 1324,701L1324,0L0,0Z" style="fill:rgb(22,23,20);fill-rule:nonzero;"/>
            </g>
            <g transform="matrix(1.20907,0,0,1.20907,0.341062,0.124366)">
                <path d="M25.625,700.896C40.458,695.38 56.536,691.557 74.763,691.557C140.023,691.557 177.734,740.56 229.22,740.56C280.705,740.56 318.417,691.557 383.676,691.557C448.936,691.557 486.647,740.56 538.133,740.56C589.619,740.56 627.33,691.557 692.59,691.557C757.849,691.557 795.561,740.56 847.046,740.56C898.532,740.56 936.243,691.557 1001.5,691.557C1028.23,691.557 1050.34,699.779 1070.65,709.517L1070.66,711.381L1070.99,711.394C1070.61,741.269 1069.41,771.091 1066.58,800.735C1059.21,877.85 1034.01,952.952 994.414,1019.37C967.199,1065.02 932.13,1106.02 892.278,1141.05C743.092,1272.14 524.783,1307.15 342.135,1228.99C274.582,1200.08 215.026,1156.92 164.511,1103.83C124.094,1061.35 90.491,1010.32 67.793,956.228C46.012,904.323 31.885,849.719 26.548,793.631C24.097,767.872 25.625,741.374 25.625,715.49L25.625,700.896Z" style="fill:rgb(17,97,39);"/>
            </g>
            <g transform="matrix(1.20907,0,0,1.20907,0.341062,0.124366)">
                <path d="M25.424,610.968L25.424,29.587L1070.46,29.587L1070.46,582.888L1070.67,619.527C1050.35,609.783 1028.24,601.557 1001.5,601.557C936.243,601.557 898.532,650.56 847.046,650.56C795.561,650.56 757.849,601.557 692.59,601.557C627.33,601.557 589.619,650.56 538.133,650.56C486.647,650.56 448.936,601.557 383.676,601.557C318.417,601.557 280.705,650.56 229.22,650.56C177.734,650.56 140.023,601.557 74.763,601.557C56.451,601.557 40.308,605.416 25.424,610.968Z" style="fill:rgb(17,97,39);"/>
            </g>
            <g transform="matrix(1.20483,0,0,1.20907,-1981.58,126.478)">
                <path d="M1670.49,506.463C1685.42,500.911 1701.62,497.053 1720,497.053C1785.49,497.053 1823.33,546.055 1875,546.055C1926.67,546.055 1964.51,497.053 2030,497.053C2095.49,497.053 2133.33,546.055 2185,546.055C2236.67,546.055 2274.51,497.053 2340,497.053C2405.49,497.053 2443.33,546.055 2495,546.055C2546.67,546.055 2584.51,497.053 2650,497.053C2676.83,497.053 2699.02,505.278 2719.41,515.023L2719.46,524.19L2719.2,524.181L2719.2,568.383L2719.39,605.013C2699.01,595.274 2676.82,587.053 2650,587.053C2584.51,587.053 2546.67,636.055 2495,636.055C2443.33,636.055 2405.49,587.053 2340,587.053C2274.51,587.053 2236.67,636.055 2185,636.055C2133.33,636.055 2095.49,587.053 2030,587.053C1964.51,587.053 1926.67,636.055 1875,636.055C1823.33,636.055 1785.49,587.053 1720,587.053C1701.71,587.053 1685.57,590.875 1670.69,596.391L1670.69,582.003L1670.49,582.025L1670.49,506.463Z" style="fill:white;stroke:black;stroke-width:3px;"/>
            </g>
        </g>
        <g transform="matrix(1,0,0,1,805.558,-136)">
            <path d="M630,79C625.742,76.969 621.83,72.724 616.996,72.258C610.133,71.596 596.312,81.605 596.295,88.935C596.288,91.804 599.185,94.271 600,97C597.172,96.298 593.966,94.166 591.004,94.577C583.381,95.635 578.524,108.724 571.985,112.713C566.553,116.027 560.51,113.626 555,116.14C544.859,120.765 536.902,130.456 528.714,137.606C516.97,147.862 493.896,138.998 482.133,150.225C476.304,155.789 468.32,181.812 475.434,188.185C481.982,194.052 497.328,196.969 498.552,208.015C499.224,214.073 491.501,219.78 489.213,225C485.333,233.853 486,243.59 486,253C493.008,250.607 492.456,241.405 496.652,236.305C503.283,228.245 515.202,229.895 522.406,223.826C528.454,218.73 529.073,208.004 534.978,203.912C538.018,201.806 545.015,202.639 547.848,204.742C552.094,207.896 549.859,212.554 547.291,215.996C541.753,223.419 532.444,226.567 527.089,234.076C520.561,243.231 519.894,253.141 515.486,263C510.835,273.404 503.161,281.825 498.417,292.015C496.055,297.09 498.671,301.801 497.421,306.741C495.133,315.777 489.778,324.575 487.595,334C484.493,347.389 494.548,358.073 493.961,371C493.3,385.527 478.284,396.542 486.189,412C489.668,418.802 495.683,422.031 500.871,427.184C505.448,431.732 508.702,437.894 512.88,442.87C516.436,447.104 521.765,453.081 521.3,459C520.628,467.551 519.676,484.119 516.066,491.714C512.732,498.727 507.842,507.511 503.251,513.83C500.486,517.636 495.117,521.032 494.425,526C493.387,533.453 502.761,538.935 503.86,546C506.975,566.041 503.389,591.154 496.089,610C492.986,618.01 487.54,628.518 480.87,634.138C473.832,640.069 457.485,648.581 456,658C463.098,659.913 468.417,662.242 476,660C477.779,668.177 488.69,666.405 495,664.711C509.524,660.811 510.192,650.965 518.6,641.499C522.008,637.662 528.077,637.698 530.821,632.826C536.894,622.042 526.898,616.362 524.179,607.96C522.238,601.961 524.404,590.274 525.3,584C527.674,567.389 536.426,552.923 542.147,537.816C544.84,530.703 544.765,522.33 547.545,515C551.193,505.38 557.626,491.643 561.547,482.132C561.547,482.132 578.823,514.038 581.621,528C583.494,537.346 576.51,550.052 580.603,558.698C582.103,561.865 587.189,562.474 590,564.059C594.973,566.865 599.568,570.544 603.116,575.004C612.095,586.291 613.838,599.394 619.967,612C623.198,618.647 628.435,626.358 625.411,633.996C620.575,646.213 605.495,655.234 598,666C609.367,670.817 627.36,671.377 639,667.515C644.277,665.765 649.641,664.699 651.991,658.995C655.68,650.04 649.197,640.792 651.182,632.015C652.533,626.042 658.384,624.029 657.938,617C657.21,605.545 645.769,601.271 641.865,591.985C637.557,581.74 631.213,568.666 628.873,558C627.599,552.19 629.281,545.895 627.299,540C625.076,533.39 620.341,527.666 618.105,521C615.664,513.724 616.005,503.668 616,496C631.523,496.002 647.282,499.982 663,500.791C674.481,501.381 686.418,499.019 698,499C707.35,498.984 717.369,490.396 725.957,496.653C737.808,505.287 729.532,524.018 739.703,533.142C742.751,535.876 748.252,534.959 752,535.004C760.37,535.104 781.315,541.185 780.502,552C779.955,559.27 774.268,565.487 771.424,572C761.396,594.966 748.886,613.919 731.624,631.776C722.406,641.313 709.139,648.435 703,661C719.599,666.522 743.651,671.842 756.682,656.711C760.705,652.039 758.168,644.884 762.318,640.329C767.435,634.712 776.997,636.686 780.682,629.956C785.66,620.865 780.543,610.653 786.948,601C794.52,589.587 804.058,579.296 811.904,568C815.706,562.526 820.357,558.911 821.532,552C823.463,540.638 815.319,532.683 808.619,524.911C806.527,522.483 801.122,516.063 803.813,512.604C806.771,508.803 813.775,513.325 817,514.461C822.085,516.252 828.372,516.083 832.674,519.652C838.534,524.513 841.018,532.417 847.015,537.38C857.583,546.128 868.801,535.958 878.999,542.01C886.463,546.44 886.623,552.627 888.834,560C893.711,576.265 893.712,596.006 892.961,613C891.929,636.312 856.734,640.962 855,664C869.251,664.305 895.922,677.009 906.081,660.7C911.504,651.994 908.394,638.844 914.653,631.148C920.583,623.857 933.984,629.484 932.812,615C931.595,599.967 915.115,598.893 914.09,585C912.944,569.463 913,553.59 913,538C913,531.991 914.786,522.468 911.972,517.015C909.75,512.709 904.645,510.882 901,508.037C892.271,501.223 877.183,489.779 873.475,479C868.837,465.521 868.868,450.982 867.911,437C866.605,417.932 865,399.159 865,380C869.941,381.45 874.644,385.105 880,384.697C921.747,381.513 933.905,317.238 907.957,291.04C899.993,283 889.17,278.978 878,282.059C870.98,283.995 864.149,290.403 866,298C869.486,296.386 872.944,292.26 877,292.542C902.125,294.286 906.129,340.643 886,350.822C861.284,363.32 835.656,337.491 814,330.1C792.549,322.78 770.795,327.418 749,328.911C736.694,329.753 724.386,326.991 712,328.17C694.744,329.812 671.205,334.294 655,326.275C644.255,320.958 629.119,299.306 628.279,287C627.32,272.967 632.64,258.11 632.985,244C633.231,233.958 631.116,213.287 637.684,205.264C644.439,197.013 668.908,192.001 679,192C671.655,176.892 656.128,178.839 643.015,173.366C637.928,171.243 634.833,166.872 630.83,163.314C628.233,161.006 623.23,159.173 622.043,155.671C619.927,149.428 628.216,143.588 631.664,139.711C645.31,124.371 663.625,118.336 683,126.901C689.88,129.942 694.35,134.683 700.089,139.24C708.994,146.31 717.575,153.327 723.911,163.093C749.798,202.999 740.96,253.959 728,296C739.14,294.759 742.234,280.292 744.427,271C747.712,257.086 751.329,243.429 751.961,229C752.429,218.302 749.287,201.233 749.287,190.472C749.287,190.472 756.691,238.75 752.985,256C750.028,269.766 743.212,284.116 742,298C752.608,295.842 757.633,279.295 760.254,270C768.423,241.026 767,209.801 767,180L761,179C769.199,177.795 768.482,157.139 764.544,151.323C762.186,147.841 755,152 755,152C759.898,144.461 762.046,135.808 758.157,127.015C755.442,120.878 747.649,115.017 742,120C741.957,116.306 743.389,112.704 742.603,109C740.264,97.992 727.072,82.162 717,92C717,88.106 717.903,82.655 715.258,79.418C710.032,73.024 691.524,65.685 686,76C679.773,61.387 656.115,59.459 654,73C654,73 651.86,66.202 649,66C644.411,65.676 627.307,64.619 626.465,71.058C626.121,73.689 628.962,76.71 630,79Z" style="fill:rgb(22,23,20);fill-rule:nonzero;"/>
            <path d="M629,71C626.613,72.763 634.717,78.17 631.044,79.99C625.093,82.938 619.697,72.397 613,75.859C609.486,77.675 600.655,83.931 599.905,88.12C599.242,91.824 605.122,94.893 600.747,98.378C597.655,100.842 594.493,97.918 591.188,98.447C588.055,98.948 581.229,107.997 580.907,111.07C580.451,115.421 586.176,115.813 588.906,117.274C592.481,119.187 592.799,122.696 595.585,125.069C597.912,127.052 601.222,127.111 603.428,129.419C605.866,131.969 605.729,136.127 608.433,138.392C614.893,143.803 619.741,128.453 624.015,125.591C639.675,115.105 655.401,105.146 675,108.325C736.342,118.276 761.927,197.06 755.871,251C754.171,266.142 747.069,280.255 744,295C752.39,290.015 767.904,267.01 765.391,182.77C765.669,180.779 760.046,182.346 760.046,179.981C760.047,177.345 763.014,175.433 763.682,172.911C765.235,167.043 766.632,156.877 762,152C759.452,151.342 755.358,156.487 754.047,152.758C752.212,147.537 759.054,140.704 757.468,134C756.351,129.282 753.587,124.263 748.982,122.243C746.37,121.098 741.856,122.289 740.153,119.643C738.503,117.08 740.076,112.938 739.397,110.004C737.962,103.809 730.381,91.253 723.089,91.198C720.723,91.181 717.686,96.6 716,95C714.314,93.4 716.345,84.697 712.972,81.599C709.154,78.093 699.917,72.363 693.093,73.962C690.114,73.586 687.961,78.928 685.08,78.08C682.049,77.186 679.2,70.112 674.907,68.603C670.615,67.095 663.167,66.228 659.325,69.027C656.835,69.716 656.077,74.607 653.785,74.448C651.493,74.289 648.767,68.482 645.573,68.071C641.585,67.558 631.511,69.146 629,71Z" style="fill:rgb(252,241,14);fill-rule:nonzero;"/>
            <path d="M618,149C623.521,145.662 626.874,138.926 631.2,134.184C637.751,127.003 648.302,121.349 658,120.184C677.35,117.862 694.318,128.459 707.996,140.926C749.761,178.994 748.688,242.25 732,292C737.056,289.149 737.574,284.073 739.463,279C743.802,267.348 747.481,255.45 748.13,243C748.966,226.981 750.578,210.037 747.737,194C746.518,187.117 743.123,173.265 739.887,167.31C728.022,145.475 717.83,129.073 695.342,116.829C668.807,104.156 622.407,111.687 618,149Z" style="fill:rgb(252,241,14);fill-rule:nonzero;"/>
            <path d="M560.354,127.338C571.877,121.382 582,125 582,125C582,125 563.708,130.554 568.506,142.332C580.848,134.187 594,144 594,144C594,144 580.945,143.127 577.059,150.019C575.806,152.24 573.797,156.797 576.604,158.731C582.977,151.934 593.597,158.318 599,159C590.309,167.213 572.749,163.556 575,179C590.772,168.023 600.642,177.415 610,179C610.032,190.143 619.631,198.552 631,198.552C643.889,198.552 657.677,189.162 671,188C671,188 665.764,185.236 663,186C662.716,177.359 643.783,178.641 637,176.306C631.295,174.342 630.722,170.41 627.199,166.398C620.027,158.23 615.892,157.246 616,145C606.518,143.198 601.313,137.612 598.235,130.621C579.732,106.473 563.111,116.117 560.354,127.338Z" style="fill:white;fill-rule:nonzero;"/>
            <path d="M482,158C482,158 498.614,155.339 500.669,161.184C503.01,167.845 492.744,167.685 490,163C479.245,166.807 477.05,175.457 479,186C479,186 499.258,175.071 506.423,180.317C510.313,183.165 506.668,187.431 502.995,187.907C497.259,188.651 486,188 486,188C492.286,192.445 504.236,202.256 502.647,211C500.425,223.228 486.134,228.672 489,243C500.453,220.235 520.159,223.957 514,204C518.229,208.141 517,214.439 517,220C523.202,217.451 530.676,207.022 527.833,200.054C526.252,196.178 522.158,193.63 520,190C525.575,190.258 529.775,194.022 535.015,195.486C541.675,197.348 548.497,196.824 555,198.495C560.661,199.949 565.929,202.487 571.867,199.968C581.876,195.72 570.546,183.006 570.058,176.996C569.564,170.919 572.483,168.184 573.584,162.889C574.129,160.27 571.936,159.618 570,159C575.922,146.684 562.699,142.533 553,145C554.2,140.946 562.631,133.35 558.378,128.84C553.268,123.422 546.308,130.129 542.5,133.71C538.645,137.335 535.562,141.631 530.714,144.116C521.061,149.063 508.418,148.371 498,150.464C492.085,151.652 487.243,155.219 482,158Z" style="fill:white;fill-rule:nonzero;"/>
            <path d="M547,156C547.063,161.286 551.539,170.453 558.278,165.681C562.033,163.023 567,156 567,156C558.33,151.007 547,152.333 543,150C540.697,148.656 543,142 543,142C532.495,144.94 538.007,155.894 547,156Z" style="fill:rgb(22,23,20);fill-rule:nonzero;"/>
            <path d="M551.088,158.437C551.088,158.437 554.659,159.892 557,159C559.154,158.304 558.205,155.849 558.205,155.849L551.088,158.437Z" style="fill:white;fill-rule:nonzero;"/>
            <path d="M502,174C502,174 514.773,169.545 517,163C523.505,165.745 534.005,165.639 537,158C532.857,158.192 529.028,160.382 525,160.411C521.579,160.436 518.406,157.617 515.04,158.073C509.589,158.813 503.255,169.194 502,174Z" style="fill:rgb(22,23,20);fill-rule:nonzero;"/>
            <path d="M617,186C617,186 626.161,190.368 631.089,190.491C637.756,190.658 657,187 657,187C650.948,184.437 643.433,184.091 637.004,182.471C628.792,180.403 617.695,171.075 617,186Z" style="fill:rgb(22,23,20);fill-rule:nonzero;"/>
            <path d="M611.065,196.906C603.518,177.828 586.846,178.04 579.613,190.25C587.436,187.908 591.301,191 591.301,191C591.301,191 578.819,193.69 579.176,201.084C585.705,200.02 590,203 590,203C582.616,205.272 575.49,208.955 568,210.802C564.592,211.643 560.59,210.363 557.44,211.942C552.728,214.304 550.46,220.539 546.571,224.025C535.471,233.975 524.283,236.531 522,257C525.016,251.873 530.8,250.131 530.8,250.131C528.575,254.729 522.599,260.687 519.875,265C516.621,270.151 515.849,275.883 512.15,281C507.487,287.452 499.885,292.233 503,302C508.964,292.346 517,294 517,294C517,294 500.85,303.677 497.025,320.039C491.841,333.471 491.721,354.4 498.306,367.334C499.733,351.844 515.469,343.038 517,333C528.84,330.897 530.638,324.068 538.39,316.514C546.319,308.787 554.539,302.228 559.664,292C565.926,279.499 567.87,263.749 585,263C585,263 577.535,266.735 575,269C572.202,271.5 570.34,277.38 568.21,282.001C563.674,291.84 559.62,301.809 553.598,310.961C550.275,316.011 544.661,318.871 541.085,323.495C536.041,330.017 536.001,341.186 536,349C530.596,345.843 534.228,332.331 526.971,333.453C519.448,334.615 518.288,342.521 514.285,347.424C505.566,358.105 503.04,367.905 497.722,380C495.27,385.578 490.611,389.809 489.38,396C488.399,400.938 490.296,411.826 494.571,415.046C507.253,424.989 499,404 499,404C511.97,402.013 508.195,414.897 508.804,423C509.342,430.163 512.048,439.438 519,441C515.991,437.424 517,430 517,430C526.163,438.408 521.16,458.542 539,458C537.19,457.369 538,448 538,448C540.119,456.15 551.675,469.414 559,469C557.051,464.891 560,462 560,462L574.441,498.015C574.441,498.015 581.861,518.07 586.121,523.401C589.319,527.403 600,530 600,530C586.461,526.787 582.259,549.727 587,553C587.193,551.146 591,546 591,546C591,546 589.859,551.847 592,555C593.108,552.363 602,546 602,546C602,546 601.31,554.705 598,559C600.136,564.515 610.645,571.417 614.815,579.089C619.397,587.518 625.492,609.576 625.492,609.576L632.559,621.262L641,630C631.685,627.203 631.429,632.318 633,640C634.938,640.507 636.993,641.317 639.004,641.44C653.524,642.325 637.796,619.082 648,613L649,622C655.576,617.506 651.454,611.472 647.791,606.132C645.48,602.764 641.217,602.048 638.853,598.786C633.069,590.805 632.231,578.988 628.325,570.039C626.397,565.621 622.22,563.153 620,559C624.488,558.038 624.232,546.108 622.306,542.389C617.956,533.992 613.231,524.472 611.389,515C610.291,509.354 611.441,502.681 609.694,497.222C608.052,492.089 601.381,489.11 599.972,484.917C598.971,481.938 599.217,476.423 602.097,476.392C602.098,481.077 608,484 608,484C608.785,477.832 619.112,468.095 615,463C607.509,459.095 615.524,446.043 618.857,441.21C622.19,436.377 632,429 632,429C632,429 615.525,450.726 618,458C623.058,457.379 614.446,493.193 624,492C620.782,477.383 627.82,468.374 627.82,468.374C626.365,476.213 624.526,480.524 628.177,487.937C633.331,496.196 641.878,494.331 642,484C642,484 648.53,500.11 666,495C668.631,487.943 667.289,480.657 663,473C670.649,473.662 665.961,492.332 677.996,492.422C686.283,492.484 684.16,482.762 678,481C679.782,479.359 682.061,477.584 684.412,479.647C688.099,482.884 687.588,489.755 691.688,493.272C700.565,500.89 709.687,474.426 705,472C714.377,468.724 707.337,484.773 710,487C712.663,489.227 719.013,489.462 721.976,485.362C726.444,479.178 726.259,467.27 728.595,460C730.694,453.469 733.172,443.8 736.598,438.043C740.154,432.068 745.221,428.397 746.442,421C747.274,415.963 745.185,408.964 744,404C749.163,406.834 755.778,417.726 753.411,423.871C750.916,430.352 743.456,435.709 740.274,442.286C735.261,452.645 735.374,466.77 733.791,478C732.775,485.206 731.428,492.701 734,495C734.802,492.84 739,487 739,487C736.164,502.264 739.071,514.443 743,529C750.247,524.772 747.82,511.344 750,506C751.374,502.632 756.077,496.937 756.077,496.937C756.077,496.937 750.28,522.744 754,531C759.193,527.521 777,522 777,522C777,522 772.635,527.888 766,532C766.898,536.992 783.789,539.06 786.396,546.015C789.358,553.917 782.696,562.682 778.963,569C771.552,581.543 766.183,595.956 759.501,609C757.875,612.175 756.138,616.988 753.491,619.411C751.155,621.549 729.935,629.382 743.059,634.848C762.062,642.763 755.323,615.241 770,616C770.316,620.485 771.258,624.385 767,627C767,627 768.242,634.045 773.272,629.257C779.155,623.658 774.061,611.312 777.609,604C783.879,591.078 796.255,578.409 805.12,567.001C808.945,562.077 814.315,558.422 815.531,552C817.802,540.006 808.288,535.334 802.378,526.714C797.161,519.106 793,501 793,501C792.575,495.625 786.226,487.097 787.122,483.05C788.052,478.851 799.282,471.666 802.511,467.714C809.88,458.695 812.717,448.065 815,437C815,437 816.35,450.048 814.066,455.985C811.052,463.818 800.261,477.664 797.917,484C796.735,487.193 800,494 800,494C818.936,486.992 822.025,459.764 827.22,443C835.117,417.514 866.387,388.831 842.812,361.734C839.688,358.143 836.226,356.838 832,355C844.975,354.879 873.967,375.909 876,381C885.378,380.57 886.998,377.347 884,369C893.574,374.875 907.743,365.439 910.114,357.685C905.646,357.84 905.47,357.978 904,357C904,357 918.812,343.86 917,334C912.783,334.12 912,333 912,333C916.303,325.265 917.334,318.67 914,312C910.213,314.245 908,314 908,314C917.202,293.243 883.223,274.772 870.515,291.125C881.432,285.664 889.89,291.065 895.066,297.044C907.454,311.355 910.475,349.77 887,356.428C870.395,361.138 849.9,356.65 835,348.88C825.136,343.737 814.996,335.863 804,333.518C785.202,329.509 766.723,334.171 748,334.961C731.648,335.651 715.523,332.958 699,334.089C682.072,335.249 660.521,339.808 645.184,329.787C638.37,325.335 634.437,316.022 630.938,309.015C627.684,302.501 622.796,298.518 621.464,291C616.961,265.581 629.89,238.428 626.87,213C625.729,203.387 614.123,204.636 611.065,196.906Z" style="fill:white;fill-rule:nonzero;"/>
            <path d="M557,250L573,235C575.521,259.011 526,292 526,292C537.384,291.992 551.76,286.372 559.468,277.7C563.664,272.979 564.855,266.156 570.13,262.312C576.233,257.866 599,242 599,242C599,242 577.963,247.297 574,253C574.287,242.481 577.035,237.357 580,232C584.974,232.189 587,228 587,228C587,228 582.705,231.167 580,229C574.769,224.809 585.28,215.267 592,212C578.268,213.711 570.828,227.349 563.481,238.003C560.676,242.07 557.398,244.906 557,250Z" style="fill:rgb(22,23,20);fill-rule:nonzero;"/>
            <path d="M552,320C558.514,313.889 563,314 563,314C563,314 558.524,327.028 557.289,333C556.147,338.522 557.2,344.426 555.591,349.83C553.21,357.83 547.346,374.608 543,381C532.993,384.01 538.497,396.449 546,398C541.749,387.593 546.619,383.21 551.005,373.714C554.708,365.699 557.927,355.406 562.723,348.129C567.241,341.274 578.717,333.971 578,329C565.075,342.224 562,340 562,340C562,340 564.653,314.437 570,304C577.114,289.781 587,284 587,284C573.308,286.717 572.683,298.858 564.431,307.53C560.344,311.825 552.298,315.566 552,320Z" style="fill:rgb(22,23,20);fill-rule:nonzero;"/>
            <path d="M559,386C559,386 560.958,378.117 563,375C566.167,370.167 576.563,369.252 580,357C583.135,351.345 595,350 595,350C582.906,345.291 574.026,360.349 568.157,367.607C566.312,369.89 562.878,370.527 561.603,373.275C560.025,376.672 559.456,382.258 559,386Z" style="fill:rgb(22,23,20);fill-rule:nonzero;"/>
            <path d="M858,381C858,399.743 847.774,416.127 840.175,433C832.655,449.697 827.603,467.146 820.521,484C817.216,491.865 807.642,497.556 807,506C813.778,506.057 821.474,511.769 827.852,510.578C832.631,509.686 831.583,500.347 829.411,497.518C826.983,494.354 823.912,492.667 822,489C822,489 836.392,497.121 840,497C840.784,495.43 840,491 840,491C840,491 848.511,501.022 849,506C842.352,506.752 840.95,500.971 837.308,502.618C833.379,504.395 837.329,509.543 838.279,512.015C842.236,522.311 846.275,531.337 855,537C855.723,531.051 867,518 867,518C867,518 860.349,534.247 862,537C866.812,532.954 882,528 882,528C882,528 880.207,531.378 876,534C879.645,535.775 885.505,536.899 888,542C888,542 900.179,590.954 898.96,616C898.611,623.175 893.383,628.052 893,635C902.085,634.974 907.627,631.932 911.557,623.576C912.789,620.956 912.7,616.449 915.313,614.752C920.317,611.501 926,623 926,623C927.256,616.235 926.874,609.23 921.776,603.889C917.077,598.966 910.525,597.847 908.43,589.985C902.96,569.46 914.118,542.749 905.076,523.001C901.258,514.661 892.604,510.4 886.089,504.675C875.637,495.491 863.76,481.563 858,469C858,469 861.416,468.945 864,471C866.241,469.404 863.015,452 863.015,452L860.129,401.961L858,381Z" style="fill:white;fill-rule:nonzero;"/>
            <path d="M604,384C581.709,395.328 585.706,437.001 588.441,441.199C589.7,435.898 601,427 601,427C603.089,435.628 598,462 598,462C598,462 609.858,446.697 609.738,438C609.671,433.125 606.402,429.293 606.819,424C607.294,417.984 610.47,411.167 612,408C612.725,406.499 616,405 616,405C605.042,405.265 605.813,414.571 600.165,421.95C597.268,425.734 590.259,428.298 589.611,433.572C588.262,431.276 589.95,416.177 592.074,408.17C594.241,400.003 604,384 604,384Z" style="fill:rgb(22,23,20);fill-rule:nonzero;"/>
            <path d="M643,443C642.92,452.646 635.488,471.497 651,472C651,472 646.382,466.395 645.444,462.995C644.111,458.162 643,443 643,443Z" style="fill:rgb(22,23,20);fill-rule:nonzero;"/>
            <path d="M655,455C654.077,462.47 654.074,470.17 662.526,472.399L655,455Z" style="fill:rgb(22,23,20);fill-rule:nonzero;"/>
            <path d="M525,506C529.05,508.212 529.637,511.594 530,516C530,516 516.611,512.828 516,502C513.199,506.699 510.906,514.775 508.406,518.942C506.529,522.07 501,527 501,527C508.223,530.581 517,525 517,525C515.942,531.639 507.96,529.678 506.902,534.225C505.359,540.855 513.208,549.797 512.857,557C512.036,573.837 506.666,591.362 503.75,608C503.109,611.654 502.922,616.633 500.988,619.857C498.6,623.835 490.857,626.577 494.067,632.74C497.516,639.361 506.059,638.356 510.44,633.505C517.422,615.843 520.907,630.418 522,630C523.093,629.583 519.757,632.219 517,631C516.288,634.985 524.768,634.604 525.771,628.995C527.345,620.192 519.895,618.442 517.692,611.867C515.292,604.703 519.271,590.559 520.17,583C521.4,572.661 526.319,565.376 529.107,555.985C529.989,553.014 528.888,549.932 529.963,547.001C532.569,539.891 538.094,535.999 539.471,528C540.631,521.256 536.55,512.973 536,506C536,506 539.873,512.327 543.443,510.319C546.809,508.424 546.755,503.586 548.1,500.424C551.9,491.496 561.924,478.127 549,473L538,501C534.747,489.992 546.94,478.724 540.566,468.108C537.081,462.302 527.468,460.188 525.63,468.005C522.418,481.671 521.931,492.895 525,506Z" style="fill:white;fill-rule:nonzero;"/>
            <g>
                <g transform="matrix(1,0,0,1,31.4421,0)">
                    <path d="M597.829,637.214C591.587,640.626 584.617,655.722 574.303,663.025C576.995,666.486 606.456,665.383 612.698,661.971C618.477,658.812 617.952,645.842 615.26,642.38C609.073,646.217 597.449,649.154 597.829,637.214Z" style="fill:rgb(252,241,14);"/>
                </g>
                <g transform="matrix(1,0,0,1,31.4421,0)">
                    <path d="M856.199,633.504C857.446,625.116 829.306,654.516 830.091,659.57C834.878,661.167 853.431,667.814 860.914,663.826C868.398,659.838 878.198,641.956 877.412,636.902C876.74,631.934 854.512,644.861 856.199,633.504Z" style="fill:rgb(252,241,14);"/>
                </g>
                <g transform="matrix(1,0,0,1,31.4421,0)">
                    <path d="M704.551,634.039C697.33,636.767 683.236,650.275 679.136,657.12C679.624,661.491 700.293,664.804 707.804,662.044C717.96,658.362 724.691,644.933 724.204,640.562C723.716,636.191 704.57,641.077 704.551,634.039Z" style="fill:rgb(252,241,14);"/>
                </g>
                <g transform="matrix(1,0,0,1,31.4421,0)">
                    <path d="M457.7,633.613C452.838,635.454 435.179,647.599 433.085,653.44C429.271,664.235 452.663,646.16 452.628,651.028C449.684,654.673 447.01,659.035 451.285,661.181C467.458,660.653 476.842,652.212 484.469,637.714C486.583,634.297 468.433,641.365 463.971,640.681C460.858,640.204 460.646,632.498 457.7,633.613Z" style="fill:rgb(252,241,14);"/>
                </g>
            </g>
        </g>
        <g transform="matrix(1,0,0,1,1322.64,87.8144)">
            <g>
                <g transform="matrix(1,0,0,1,-43,31)">
                    <g transform="matrix(0.987688,-0.156434,0.156434,0.987688,64.9249,-46.4645)">
                        <path d="M552.312,310.003C587.058,367.852 586.077,426.358 552.743,618.804C563.478,483.986 585.342,376.554 552.312,310.003Z" style="fill:rgb(252,241,14);stroke:black;stroke-width:3.62px;"/>
                    </g>
                    <g transform="matrix(0.992546,-0.121869,0.121869,0.992546,104.931,-40.2562)">
                        <path d="M552.312,310.003C587.058,367.852 586.077,426.358 552.743,618.804C563.478,483.986 585.342,376.554 552.312,310.003Z" style="fill:rgb(252,241,14);stroke:black;stroke-width:3.62px;"/>
                    </g>
                    <g transform="matrix(0.990268,-0.139173,0.139173,0.990268,51.1831,-29.4184)">
                        <path d="M552.312,310.003C587.058,367.852 586.077,426.358 552.743,618.804C563.478,483.986 585.342,376.554 552.312,310.003Z" style="fill:rgb(252,241,14);stroke:black;stroke-width:3.62px;"/>
                    </g>
                    <g transform="matrix(0.996195,-0.0871557,0.0871557,0.996195,143.99,-32.5702)">
                        <path d="M552.312,310.003C587.058,367.852 586.077,426.358 552.743,618.804C563.478,483.986 585.342,376.554 552.312,310.003Z" style="fill:rgb(252,241,14);stroke:black;stroke-width:3.62px;"/>
                    </g>
                    <g transform="matrix(0.992546,-0.121869,0.121869,0.992546,37.9315,-11.2562)">
                        <path d="M552.312,310.003C587.058,367.852 586.077,426.358 552.743,618.804C563.478,483.986 585.342,376.554 552.312,310.003Z" style="fill:rgb(252,241,14);stroke:black;stroke-width:3.62px;"/>
                    </g>
                </g>
                <g>
                    <g transform="matrix(1,0,0,1,-490.752,-128.5)">
                        <path d="M1198,783C1198,783 1167.97,803.51 1157.6,817.325C1152.65,823.91 1154.72,848.303 1157,856C1169.67,847.011 1191.77,832.197 1197.18,817C1200.59,807.426 1198,793.124 1198,783Z" style="fill:rgb(252,241,14);fill-rule:nonzero;stroke:black;stroke-width:3.62px;stroke-linecap:butt;stroke-miterlimit:2;"/>
                    </g>
                    <g transform="matrix(-1,0,0,1,1816.75,-128.5)">
                        <path d="M1198,783C1198,783 1167.97,803.51 1157.6,817.325C1152.65,823.91 1154.72,848.303 1157,856C1169.67,847.011 1191.77,832.197 1197.18,817C1200.59,807.426 1198,793.124 1198,783Z" style="fill:rgb(252,241,14);fill-rule:nonzero;stroke:black;stroke-width:3.62px;stroke-linecap:butt;stroke-miterlimit:2;"/>
                    </g>
                </g>
                <g transform="matrix(1,0,0,1,0,-45)">
                    <g transform="matrix(1,0,0,1,-490.752,-128.5)">
                        <path d="M1198,783C1198,783 1167.97,803.51 1157.6,817.325C1152.65,823.91 1154.72,848.303 1157,856C1169.67,847.011 1191.77,832.197 1197.18,817C1200.59,807.426 1198,793.124 1198,783Z" style="fill:rgb(252,241,14);fill-rule:nonzero;stroke:black;stroke-width:3.62px;stroke-linecap:butt;stroke-miterlimit:2;"/>
                    </g>
                    <g transform="matrix(-1,0,0,1,1816.75,-128.5)">
                        <path d="M1198,783C1198,783 1167.97,803.51 1157.6,817.325C1152.65,823.91 1154.72,848.303 1157,856C1169.67,847.011 1191.77,832.197 1197.18,817C1200.59,807.426 1198,793.124 1198,783Z" style="fill:rgb(252,241,14);fill-rule:nonzero;stroke:black;stroke-width:3.62px;stroke-linecap:butt;stroke-miterlimit:2;"/>
                    </g>
                </g>
                <g transform="matrix(1,0,0,1,0,-90)">
                    <g transform="matrix(1,0,0,1,-490.752,-128.5)">
                        <path d="M1198,783C1198,783 1167.97,803.51 1157.6,817.325C1152.65,823.91 1154.72,848.303 1157,856C1169.67,847.011 1191.77,832.197 1197.18,817C1200.59,807.426 1198,793.124 1198,783Z" style="fill:rgb(252,241,14);fill-rule:nonzero;stroke:black;stroke-width:3.62px;stroke-linecap:butt;stroke-miterlimit:2;"/>
                    </g>
                    <g transform="matrix(-1,0,0,1,1816.75,-128.5)">
                        <path d="M1198,783C1198,783 1167.97,803.51 1157.6,817.325C1152.65,823.91 1154.72,848.303 1157,856C1169.67,847.011 1191.77,832.197 1197.18,817C1200.59,807.426 1198,793.124 1198,783Z" style="fill:rgb(252,241,14);fill-rule:nonzero;stroke:black;stroke-width:3.62px;stroke-linecap:butt;stroke-miterlimit:2;"/>
                    </g>
                </g>
                <g transform="matrix(1,0,0,1,0,-135)">
                    <g transform="matrix(1,0,0,1,-490.752,-128.5)">
                        <path d="M1198,783C1198,783 1167.97,803.51 1157.6,817.325C1152.65,823.91 1154.72,848.303 1157,856C1169.67,847.011 1191.77,832.197 1197.18,817C1200.59,807.426 1198,793.124 1198,783Z" style="fill:rgb(252,241,14);fill-rule:nonzero;stroke:black;stroke-width:3.62px;stroke-linecap:butt;stroke-miterlimit:2;"/>
                    </g>
                    <g transform="matrix(-1,0,0,1,1816.75,-128.5)">
                        <path d="M1198,783C1198,783 1167.97,803.51 1157.6,817.325C1152.65,823.91 1154.72,848.303 1157,856C1169.67,847.011 1191.77,832.197 1197.18,817C1200.59,807.426 1198,793.124 1198,783Z" style="fill:rgb(252,241,14);fill-rule:nonzero;stroke:black;stroke-width:3.62px;stroke-linecap:butt;stroke-miterlimit:2;"/>
                    </g>
                </g>
                <g transform="matrix(1,0,0,1,-22.5,-49.5497)">
                    <path d="M685.81,800.27C685.824,793.285 686.633,786.772 688.848,783.825C699.218,770.01 729.248,749.5 729.248,749.5C729.248,759.624 731.838,773.926 728.428,783.5C723.018,798.697 702.17,813.568 689.5,822.557C689.446,822.376 689.921,944.092 689.088,960.599C688.922,963.878 681.088,969.599 681.088,969.599C681.088,969.599 681.613,822.136 681.5,822.517C668.83,813.528 647.982,798.697 642.572,783.5C639.162,773.926 641.752,759.624 641.752,749.5C641.752,749.5 671.782,770.01 682.152,783.825C684.367,786.772 685.176,793.285 685.19,800.27L685.81,800.27Z" style="fill:rgb(252,241,14);fill-rule:nonzero;stroke:black;stroke-width:3.62px;stroke-linecap:butt;stroke-miterlimit:2;"/>
                </g>
                <g transform="matrix(1,0,0,1,0,50)">
                    <path d="M663.406,411.133C663.406,411.133 688.298,461.875 679.739,481.666C669.753,504.757 657.03,504.757 647.045,481.666C638.485,461.875 663.406,411.133 663.406,411.133Z" style="fill:rgb(252,241,14);fill-rule:nonzero;stroke:black;stroke-width:3.62px;stroke-linecap:butt;stroke-miterlimit:2;"/>
                </g>
            </g>
        </g>
        <g transform="matrix(-1,0,0,1,1666.59,87.8144)">
            <g>
                <g transform="matrix(1,0,0,1,-43,31)">
                    <g transform="matrix(0.987688,-0.156434,0.156434,0.987688,64.9249,-46.4645)">
                        <path d="M552.312,310.003C587.058,367.852 586.077,426.358 552.743,618.804C563.478,483.986 585.342,376.554 552.312,310.003Z" style="fill:rgb(252,241,14);stroke:black;stroke-width:3.62px;"/>
                    </g>
                    <g transform="matrix(0.992546,-0.121869,0.121869,0.992546,104.931,-40.2562)">
                        <path d="M552.312,310.003C587.058,367.852 586.077,426.358 552.743,618.804C563.478,483.986 585.342,376.554 552.312,310.003Z" style="fill:rgb(252,241,14);stroke:black;stroke-width:3.62px;"/>
                    </g>
                    <g transform="matrix(0.990268,-0.139173,0.139173,0.990268,51.1831,-29.4184)">
                        <path d="M552.312,310.003C587.058,367.852 586.077,426.358 552.743,618.804C563.478,483.986 585.342,376.554 552.312,310.003Z" style="fill:rgb(252,241,14);stroke:black;stroke-width:3.62px;"/>
                    </g>
                    <g transform="matrix(0.996195,-0.0871557,0.0871557,0.996195,143.99,-32.5702)">
                        <path d="M552.312,310.003C587.058,367.852 586.077,426.358 552.743,618.804C563.478,483.986 585.342,376.554 552.312,310.003Z" style="fill:rgb(252,241,14);stroke:black;stroke-width:3.62px;"/>
                    </g>
                    <g transform="matrix(0.992546,-0.121869,0.121869,0.992546,37.9315,-11.2562)">
                        <path d="M552.312,310.003C587.058,367.852 586.077,426.358 552.743,618.804C563.478,483.986 585.342,376.554 552.312,310.003Z" style="fill:rgb(252,241,14);stroke:black;stroke-width:3.62px;"/>
                    </g>
                </g>
                <g>
                    <g transform="matrix(1,0,0,1,-490.752,-128.5)">
                        <path d="M1198,783C1198,783 1167.97,803.51 1157.6,817.325C1152.65,823.91 1154.72,848.303 1157,856C1169.67,847.011 1191.77,832.197 1197.18,817C1200.59,807.426 1198,793.124 1198,783Z" style="fill:rgb(252,241,14);fill-rule:nonzero;stroke:black;stroke-width:3.62px;stroke-linecap:butt;stroke-miterlimit:2;"/>
                    </g>
                    <g transform="matrix(-1,0,0,1,1816.75,-128.5)">
                        <path d="M1198,783C1198,783 1167.97,803.51 1157.6,817.325C1152.65,823.91 1154.72,848.303 1157,856C1169.67,847.011 1191.77,832.197 1197.18,817C1200.59,807.426 1198,793.124 1198,783Z" style="fill:rgb(252,241,14);fill-rule:nonzero;stroke:black;stroke-width:3.62px;stroke-linecap:butt;stroke-miterlimit:2;"/>
                    </g>
                </g>
                <g transform="matrix(1,0,0,1,0,-45)">
                    <g transform="matrix(1,0,0,1,-490.752,-128.5)">
                        <path d="M1198,783C1198,783 1167.97,803.51 1157.6,817.325C1152.65,823.91 1154.72,848.303 1157,856C1169.67,847.011 1191.77,832.197 1197.18,817C1200.59,807.426 1198,793.124 1198,783Z" style="fill:rgb(252,241,14);fill-rule:nonzero;stroke:black;stroke-width:3.62px;stroke-linecap:butt;stroke-miterlimit:2;"/>
                    </g>
                    <g transform="matrix(-1,0,0,1,1816.75,-128.5)">
                        <path d="M1198,783C1198,783 1167.97,803.51 1157.6,817.325C1152.65,823.91 1154.72,848.303 1157,856C1169.67,847.011 1191.77,832.197 1197.18,817C1200.59,807.426 1198,793.124 1198,783Z" style="fill:rgb(252,241,14);fill-rule:nonzero;stroke:black;stroke-width:3.62px;stroke-linecap:butt;stroke-miterlimit:2;"/>
                    </g>
                </g>
                <g transform="matrix(1,0,0,1,0,-90)">
                    <g transform="matrix(1,0,0,1,-490.752,-128.5)">
                        <path d="M1198,783C1198,783 1167.97,803.51 1157.6,817.325C1152.65,823.91 1154.72,848.303 1157,856C1169.67,847.011 1191.77,832.197 1197.18,817C1200.59,807.426 1198,793.124 1198,783Z" style="fill:rgb(252,241,14);fill-rule:nonzero;stroke:black;stroke-width:3.62px;stroke-linecap:butt;stroke-miterlimit:2;"/>
                    </g>
                    <g transform="matrix(-1,0,0,1,1816.75,-128.5)">
                        <path d="M1198,783C1198,783 1167.97,803.51 1157.6,817.325C1152.65,823.91 1154.72,848.303 1157,856C1169.67,847.011 1191.77,832.197 1197.18,817C1200.59,807.426 1198,793.124 1198,783Z" style="fill:rgb(252,241,14);fill-rule:nonzero;stroke:black;stroke-width:3.62px;stroke-linecap:butt;stroke-miterlimit:2;"/>
                    </g>
                </g>
                <g transform="matrix(1,0,0,1,0,-135)">
                    <g transform="matrix(1,0,0,1,-490.752,-128.5)">
                        <path d="M1198,783C1198,783 1167.97,803.51 1157.6,817.325C1152.65,823.91 1154.72,848.303 1157,856C1169.67,847.011 1191.77,832.197 1197.18,817C1200.59,807.426 1198,793.124 1198,783Z" style="fill:rgb(252,241,14);fill-rule:nonzero;stroke:black;stroke-width:3.62px;stroke-linecap:butt;stroke-miterlimit:2;"/>
                    </g>
                    <g transform="matrix(-1,0,0,1,1816.75,-128.5)">
                        <path d="M1198,783C1198,783 1167.97,803.51 1157.6,817.325C1152.65,823.91 1154.72,848.303 1157,856C1169.67,847.011 1191.77,832.197 1197.18,817C1200.59,807.426 1198,793.124 1198,783Z" style="fill:rgb(252,241,14);fill-rule:nonzero;stroke:black;stroke-width:3.62px;stroke-linecap:butt;stroke-miterlimit:2;"/>
                    </g>
                </g>
                <g transform="matrix(1,0,0,1,-22.5,-49.5497)">
                    <path d="M685.81,800.27C685.824,793.285 686.633,786.772 688.848,783.825C699.218,770.01 729.248,749.5 729.248,749.5C729.248,759.624 731.838,773.926 728.428,783.5C723.018,798.697 702.17,813.568 689.5,822.557C689.446,822.376 689.921,944.092 689.088,960.599C688.922,963.878 681.088,969.599 681.088,969.599C681.088,969.599 681.613,822.136 681.5,822.517C668.83,813.528 647.982,798.697 642.572,783.5C639.162,773.926 641.752,759.624 641.752,749.5C641.752,749.5 671.782,770.01 682.152,783.825C684.367,786.772 685.176,793.285 685.19,800.27L685.81,800.27Z" style="fill:rgb(252,241,14);fill-rule:nonzero;stroke:black;stroke-width:3.62px;stroke-linecap:butt;stroke-miterlimit:2;"/>
                </g>
                <g transform="matrix(1,0,0,1,0,50)">
                    <path d="M663.406,411.133C663.406,411.133 688.298,461.875 679.739,481.666C669.753,504.757 657.03,504.757 647.045,481.666C638.485,461.875 663.406,411.133 663.406,411.133Z" style="fill:rgb(252,241,14);fill-rule:nonzero;stroke:black;stroke-width:3.62px;stroke-linecap:butt;stroke-miterlimit:2;"/>
                </g>
            </g>
        </g>
        <g transform="matrix(-1,0,0,1,2163.18,223.747)">
            <g transform="matrix(-0.854828,0,0,1.11146,1231.68,-489.66)">
                <ellipse cx="664.716" cy="1147.57" rx="20.472" ry="15.745" style="fill:rgb(235,235,235);stroke:black;stroke-width:2.44px;"/>
            </g>
            <path d="M663,606C762.345,606 843,686.655 843,786C843,885.345 762.345,966 663,966C563.655,966 483,885.345 483,786C483,686.655 563.655,606 663,606ZM719.6,903.046C702.488,911.345 683.283,916 663,916C642.774,916 623.621,911.371 606.534,903.111L663.1,846.545L719.6,903.046ZM584.607,889.683C575.049,882.441 566.524,873.914 559.289,864.356L620.1,803.545L645.422,828.868L584.607,889.683ZM766.797,864.242C759.574,873.808 751.056,882.347 741.506,889.597L680.777,828.868L706.1,803.545L766.797,864.242ZM545.954,729.4L602.422,785.868L545.868,842.422C537.623,825.352 533,806.212 533,786C533,765.717 537.655,746.512 545.954,729.4ZM780.111,729.534C788.371,746.621 793,765.774 793,786C793,806.161 788.4,825.257 780.197,842.288L723.777,785.868L780.111,729.534ZM637.777,785.868L663.1,811.19L688.422,785.868L663.1,760.545L637.777,785.868ZM584.758,682.203L645.422,742.868L620.1,768.19L559.403,707.494C566.651,697.948 575.19,689.43 584.758,682.203ZM741.356,682.289C750.914,689.524 759.444,698.05 766.683,707.607L706.1,768.19L680.777,742.868L741.356,682.289ZM719.422,668.868L663.1,725.19L606.712,668.803C623.743,660.6 642.839,656 663,656C683.212,656 702.352,660.623 719.422,668.868Z" style="fill:rgb(235,235,235);stroke:black;stroke-width:6.03px;"/>
            <path d="M638.775,655.714L638.775,643.5L666.275,605L687.225,605L659.825,643.5L659.825,653.538C660.882,653.512 661.94,653.5 663,653.5C668.806,653.5 674.526,653.874 680.145,654.601L683.946,642.928L722.013,614.831L741.934,621.316L703.962,649.444L700.853,658.995C707.412,660.949 713.759,663.398 719.843,666.297L727.075,656.366L771.969,641.433L788.905,653.766L744.091,668.758L738.164,676.896C743.759,680.759 749.044,685.042 753.972,689.701L763.926,682.495L811.238,682.193L823.524,699.162L776.27,699.545L768.158,705.419C772.287,710.797 776.013,716.5 779.291,722.484L790.879,718.748L835.961,733.105L842.39,753.045L797.339,738.782L787.941,741.812C790.194,748.177 791.975,754.763 793.241,761.529L805.286,761.563L843.709,789.171L843.65,810.121L805.227,782.613L795.457,782.585C795.486,783.722 795.5,784.859 795.5,786C795.5,791.763 795.131,797.44 794.415,803.016L805.732,806.735L833.721,844.881L827.181,864.783L799.16,826.733L790.04,823.736C788.077,830.346 785.612,836.741 782.687,842.878L792.173,849.827L806.98,894.763L794.599,911.663L779.733,866.808L772.079,861.2C768.175,866.849 763.844,872.18 759.134,877.147L765.941,886.604L766.11,933.917L749.106,946.155L748.856,898.901L743.389,891.305C737.947,895.467 732.173,899.217 726.117,902.508L729.613,913.455L715.128,958.497L695.171,964.87L709.56,919.859L706.76,911.091C700.328,913.345 693.667,915.116 686.821,916.361L686.757,927.742L659.042,966.088L638.092,965.97L665.707,927.624L665.759,918.472C664.841,918.491 663.921,918.5 663,918.5C656.945,918.5 650.984,918.093 645.152,917.306L641.584,928.062L603.36,955.944L583.476,949.348L621.604,921.434L624.468,912.801C617.826,910.782 611.404,908.256 605.248,905.266L598.53,914.382L553.553,929.063L536.687,916.635L581.584,901.895L587.011,894.53C581.371,890.571 576.052,886.184 571.099,881.413L561.826,888.047L514.514,888.084L502.323,871.046L549.578,870.927L557.071,865.567C552.948,860.089 549.24,854.282 545.994,848.191L535.077,851.644L490.077,837.033L483.759,817.059L528.73,831.574L537.569,828.778C535.372,822.344 533.656,815.685 532.466,808.845L520.91,808.748L482.643,780.926L482.819,759.976L521.087,787.699L530.512,787.778C530.504,787.184 530.5,786.592 530.5,786C530.5,779.652 530.947,773.409 531.813,767.29L520.717,763.574L492.942,725.273L499.594,705.407L527.402,743.614L536.453,746.645C538.498,740.069 541.043,733.713 544.041,727.618L534.518,720.56L519.963,675.541L532.438,658.71L547.052,703.648L554.871,709.443C558.822,703.876 563.192,698.626 567.934,693.741L560.956,683.929L561.051,636.617L578.123,624.474L578.109,671.729L583.831,679.773C589.267,675.714 595.024,672.062 601.06,668.86L597.434,657.282L612.17,612.323L632.163,606.061L617.522,650.991L620.492,660.477C626.41,658.471 632.515,656.872 638.775,655.714ZM663,661C731.989,661 788,717.011 788,786C788,854.989 731.989,911 663,911C594.011,911 538,854.989 538,786C538,717.011 594.011,661 663,661Z"/>
        </g>
    </g>
    <g transform="matrix(1.33387,0,0,1.33387,-422.604,-242.449)">
        <g transform="matrix(0.749698,0,0,0.749698,316.825,181.764)">
            <path d="M1382.37,719.656C1377.26,754.363 1372.93,787.752 1369.4,819.82C1365.14,858.442 1363.01,892.2 1363.01,921.093C1363.01,965.907 1367.6,998.043 1376.76,1017.5C1349.26,1008.66 1327.49,997.895 1311.44,985.218C1295.4,972.54 1283.78,957.209 1276.57,939.225C1269.37,921.24 1265.77,900.16 1265.77,875.985C1265.77,857.705 1267.73,833.382 1271.66,803.015C1275.59,772.648 1280.34,738.595 1285.9,700.858C1291.47,663.12 1297.04,623.908 1302.6,583.222C1308.17,542.536 1312.92,502.439 1316.85,462.933C1320.78,423.426 1322.74,386.867 1322.74,353.257C1322.74,340.874 1322.41,328.492 1321.76,316.109C1321.1,303.726 1320.12,291.933 1318.81,280.73C1344.35,281.909 1364.49,285.152 1379.22,290.459C1393.95,295.766 1404.76,302.989 1411.63,312.129C1418.51,321.268 1422.93,331.882 1424.89,343.97C1426.86,356.058 1427.84,369.767 1427.84,385.098C1427.84,403.967 1425.71,429.912 1421.46,462.933C1417.2,495.953 1411.8,532.806 1405.25,573.493C1400.79,601.232 1396.32,629.383 1391.86,657.947C1446.06,618.057 1494.88,579.439 1538.35,542.093C1595.64,492.857 1643.28,446.422 1681.27,402.788C1719.25,359.154 1746.75,319.352 1763.78,283.383C1770.98,295.766 1776.54,309.918 1780.47,325.838C1784.4,341.759 1786.37,358.269 1786.37,375.369C1786.37,390.7 1782.6,406.178 1775.07,421.804C1767.54,437.43 1754.44,454.677 1735.78,473.546C1717.12,492.415 1691.25,514.085 1658.18,538.556C1630.28,559.204 1596.08,582.896 1555.58,609.636C1573.05,657.141 1590.07,698.902 1606.61,734.91C1626.26,777.66 1646.39,814.955 1667.02,846.797C1687.65,878.638 1709.26,907.531 1731.85,933.476C1754.44,959.42 1778.84,985.07 1805.03,1010.43C1800.45,1012.78 1794.06,1014.85 1785.88,1016.62C1777.69,1018.39 1769.67,1019.27 1761.81,1019.27C1732.34,1019.27 1705,1011.9 1679.79,997.158C1654.58,982.417 1631.17,962.369 1609.56,937.014C1587.95,911.659 1568.14,882.766 1550.13,850.335C1532.12,817.904 1515.26,783.851 1499.55,748.177C1487.62,721.104 1476.26,694.286 1465.46,667.726C1439.76,683.985 1412.07,701.294 1382.37,719.656Z" style="fill:rgb(17,97,39);fill-rule:nonzero;stroke:black;stroke-width:10px;stroke-linecap:butt;stroke-miterlimit:2;"/>
        </g>
        <path d="M1856.34,933.972C1838.67,933.972 1821,930.546 1803.32,923.694C1785.65,916.843 1769.57,906.344 1755.09,892.198C1740.61,878.052 1728.95,860.038 1720.11,838.156C1711.27,816.274 1706.85,790.302 1706.85,760.242C1706.85,723.551 1712.87,689.954 1724.9,659.452C1736.92,628.95 1754.11,602.758 1776.44,580.876C1798.78,558.994 1824.92,542.748 1854.87,532.139C1860.27,532.139 1864.08,533.465 1866.29,536.117C1868.49,538.769 1869.6,541.864 1869.6,545.4C1854.38,554.684 1839.04,567.503 1823.57,583.86C1808.11,600.216 1795.96,622.761 1787.12,651.495L1792.28,652.821C1806.51,624.971 1823.08,603.089 1841.98,587.175C1860.88,571.261 1880.4,559.988 1900.53,553.357C1920.66,546.727 1939.56,543.411 1957.23,543.411C1978.83,543.411 1997.73,549.158 2013.93,560.651C2030.13,572.145 2042.78,588.612 2051.86,610.052C2060.94,631.492 2065.48,657.242 2065.48,687.302C2065.48,715.594 2061.55,744.218 2053.7,773.173C2045.84,802.128 2033.57,828.762 2016.88,853.075C2000.19,877.389 1978.59,896.95 1952.08,911.759C1925.57,926.568 1893.65,933.972 1856.34,933.972ZM1863.71,892.861C1884.33,892.861 1902.61,887.003 1918.57,875.289C1934.52,863.574 1948.03,848.102 1959.07,828.872C1970.12,809.643 1978.59,788.534 1984.48,765.547C1990.37,742.56 1993.31,720.015 1993.31,697.912C1993.31,658.568 1987.05,629.945 1974.54,612.041C1962.02,594.138 1945.94,585.186 1926.3,585.186C1907.15,585.186 1889.11,590.933 1872.18,602.426C1855.24,613.92 1840.02,628.95 1826.52,647.517C1813.02,666.083 1802.46,686.418 1794.85,708.521C1787.25,730.624 1783.44,752.064 1783.44,772.841C1783.44,793.618 1786.14,813.179 1791.54,831.525C1796.94,849.87 1805.53,864.679 1817.31,875.952C1829.1,887.224 1844.56,892.861 1863.71,892.861Z" style="fill:rgb(17,97,39);fill-rule:nonzero;stroke:black;stroke-width:7.5px;stroke-linecap:butt;stroke-miterlimit:2;"/>
        <g transform="matrix(0.749698,0,0,0.749698,316.825,181.764)">
            <path d="M2800.96,496.526C2806.94,482.034 2811.22,468.476 2813.79,455.857C2826.89,460.574 2837.53,468.829 2845.71,480.622C2853.9,492.415 2857.99,505.977 2857.99,521.308C2857.99,539.587 2850.95,560.078 2836.87,582.78C2822.79,605.481 2803.64,630.099 2779.41,656.634C2755.18,683.168 2727.84,711.471 2697.39,741.544C2666.94,771.616 2635.02,803.31 2601.62,836.625C2579.09,859.103 2556.85,882.319 2534.92,906.27C2555.26,906.67 2575.7,907.631 2596.22,909.153C2624.05,911.216 2653.03,912.248 2683.15,912.248C2706.07,912.248 2729.32,911.511 2752.89,910.037C2776.46,908.563 2800.04,905.762 2823.61,901.634C2824.92,908.121 2826.07,915.344 2827.05,923.304C2828.03,931.265 2828.52,938.488 2828.52,944.974C2828.52,961.484 2823.28,974.162 2812.81,983.007C2802.33,991.851 2782.68,996.274 2753.87,996.274C2738.81,996.274 2718.18,994.8 2691.99,991.851C2665.8,988.903 2637.31,986.102 2606.53,983.449C2575.76,980.795 2545.63,979.469 2516.16,979.469C2491.93,979.469 2468.85,980.795 2446.91,983.449C2424.98,986.102 2403.2,990.672 2381.59,997.158C2386.83,973.572 2394.69,955.293 2405.17,942.321C2415.65,929.348 2429.72,920.061 2447.41,914.459L2448.05,914.258C2510.98,856.841 2566.75,802.219 2615.37,750.388C2672.34,689.654 2717.86,634.227 2751.91,584.106C2757.61,575.711 2762.94,567.523 2767.89,559.542C2747.92,560.124 2726.22,561.973 2702.79,565.09C2673.98,568.923 2645.33,572.903 2616.85,577.03C2588.36,581.158 2562.33,583.222 2538.76,583.222C2515.18,583.222 2498.65,578.21 2489.15,568.186C2479.66,558.162 2474.91,544.01 2474.91,525.731C2474.91,514.527 2477.53,502.439 2482.77,489.467C2513.55,493.595 2544.49,496.69 2575.59,498.754C2606.7,500.818 2638.29,501.85 2670.38,501.85C2697.23,501.85 2724.24,501.113 2751.42,499.638C2767.64,498.759 2784.15,497.721 2800.96,496.526Z" style="fill:rgb(17,97,39);fill-rule:nonzero;stroke:black;stroke-width:10px;stroke-linecap:butt;stroke-miterlimit:2;"/>
        </g>
        <path d="M2784.94,811.3C2775.61,834.288 2762.24,854.954 2744.81,873.299C2727.38,891.645 2707.99,906.012 2686.63,916.4C2665.28,926.789 2643.55,931.983 2621.46,931.983C2588.57,931.983 2562.92,920.49 2544.51,897.502C2526.1,874.515 2516.89,842.245 2516.89,800.691C2516.89,767.536 2522.17,736.26 2532.72,706.863C2543.28,677.466 2557.76,651.716 2576.17,629.613C2594.58,607.51 2616.06,590.159 2640.61,577.56C2665.15,564.962 2691.42,558.662 2719.4,558.662C2727.75,558.662 2736.59,559.436 2745.91,560.983C2755.24,562.53 2765.8,564.851 2777.58,567.946C2751.07,573.692 2726.64,583.639 2704.31,597.785C2681.97,611.931 2662.82,628.95 2646.87,648.843C2630.91,668.736 2618.52,690.839 2609.68,715.152C2600.84,739.465 2596.42,765.105 2596.42,792.071C2596.42,819.036 2601.58,839.703 2611.89,854.07C2622.2,868.437 2636.93,875.62 2656.07,875.62C2676.2,875.62 2695.35,868.437 2713.51,854.07C2731.68,839.703 2748.12,820.252 2762.85,795.718C2777.58,771.183 2789.12,743.333 2797.46,712.168C2805.81,681.003 2809.98,648.622 2809.98,615.025C2809.98,603.531 2809.49,591.706 2808.51,579.55C2807.53,567.393 2806.05,556.673 2804.09,547.39C2809,546.948 2813.42,546.616 2817.34,546.395C2821.27,546.174 2824.95,546.063 2828.39,546.063C2848.52,546.063 2863.86,550.705 2874.41,559.988C2884.97,569.272 2890.25,582.755 2890.25,600.437C2890.25,611.931 2888.53,626.74 2885.09,644.864C2881.66,662.989 2877.61,683.324 2872.94,705.869C2868.28,728.414 2864.11,752.064 2860.42,776.82C2856.74,801.575 2854.9,826.109 2854.9,850.423C2854.9,869.431 2856.62,885.788 2860.05,899.492C2863.49,913.196 2869.38,928.668 2877.73,945.908C2846.31,940.161 2823.73,927.784 2809.98,908.775C2796.23,889.766 2789.36,861.916 2789.36,825.225L2789.36,817.6C2789.36,816.053 2789.61,814.395 2790.1,812.627L2784.94,811.3Z" style="fill:rgb(17,97,39);fill-rule:nonzero;stroke:black;stroke-width:7.5px;stroke-linecap:butt;stroke-miterlimit:2;"/>
        <path d="M3108.22,678.682C3120.99,644.643 3134.61,617.567 3149.09,597.453C3163.57,577.339 3178.18,562.862 3192.91,554.021C3207.64,545.179 3220.89,540.759 3232.67,540.759C3246.91,540.759 3258.57,544.295 3267.65,551.368C3276.73,558.441 3283.61,567.614 3288.27,578.887C3292.93,590.159 3295.27,602.205 3295.27,615.025C3295.27,629.171 3292.69,642.654 3287.53,655.474C3282.38,668.293 3274.28,678.682 3263.23,686.639C3252.19,694.596 3237.83,698.575 3220.15,698.575C3217.21,698.575 3214.26,698.464 3211.32,698.243C3208.37,698.022 3205.18,697.691 3201.74,697.248C3207.64,689.733 3213.28,679.456 3218.68,666.415C3224.08,653.374 3226.78,641.549 3226.78,630.939C3226.78,623.866 3225.19,618.119 3221.99,613.699C3218.8,609.278 3213.28,607.068 3205.43,607.068C3194.62,607.068 3182.72,612.925 3169.71,624.64C3156.7,636.355 3144.18,653.374 3132.15,675.698C3120.13,698.022 3110.31,725.319 3102.7,757.59C3095.09,789.86 3091.28,826.551 3091.28,867.663C3091.28,876.504 3091.78,885.567 3092.76,894.85C3093.74,904.133 3094.47,913.859 3094.97,924.026C3090.06,924.468 3085.88,924.8 3082.45,925.021C3079.01,925.242 3075.82,925.352 3072.87,925.352C3051.76,925.352 3035.69,920.932 3024.64,912.09C3013.59,903.249 3008.07,888.661 3008.07,868.326C3008.07,858.601 3009.67,844.787 3012.86,826.883C3016.05,808.98 3019.61,788.755 3023.53,766.21C3027.46,743.665 3031.02,720.346 3034.21,696.254C3037.4,672.162 3039,649.064 3039,626.961C3039,609.72 3038.02,592.701 3036.05,575.903C3034.09,559.104 3030.9,542.969 3026.48,527.497C3056.92,538.548 3077.54,553.8 3088.34,573.25C3099.14,592.701 3104.54,615.246 3104.54,640.886C3104.54,645.306 3104.42,650.722 3104.17,657.131C3103.93,663.541 3103.31,670.283 3102.33,677.356L3108.22,678.682Z" style="fill:rgb(17,97,39);fill-rule:nonzero;stroke:black;stroke-width:7.5px;stroke-linecap:butt;stroke-miterlimit:2;"/>
        <g transform="matrix(0.749698,0,0,0.749698,316.825,181.764)">
            <path d="M4365.7,496.526C4371.68,482.034 4375.96,468.476 4378.53,455.857C4391.63,460.574 4402.27,468.829 4410.45,480.622C4418.64,492.415 4422.73,505.977 4422.73,521.308C4422.73,539.587 4415.69,560.078 4401.61,582.78C4387.53,605.481 4368.38,630.099 4344.15,656.634C4319.92,683.168 4292.58,711.471 4262.13,741.544C4231.68,771.616 4199.76,803.31 4166.36,836.625C4143.83,859.103 4121.6,882.319 4099.66,906.27C4120,906.67 4140.44,907.631 4160.96,909.153C4188.79,911.216 4217.77,912.248 4247.89,912.248C4270.81,912.248 4294.06,911.511 4317.63,910.037C4341.2,908.563 4364.78,905.762 4388.35,901.634C4389.66,908.121 4390.81,915.344 4391.79,923.304C4392.77,931.265 4393.27,938.488 4393.27,944.974C4393.27,961.484 4388.03,974.162 4377.55,983.007C4367.07,991.851 4347.43,996.274 4318.61,996.274C4303.55,996.274 4282.92,994.8 4256.73,991.851C4230.54,988.903 4202.05,986.102 4171.27,983.449C4140.5,980.795 4110.37,979.469 4080.91,979.469C4056.68,979.469 4033.59,980.795 4011.66,983.449C3989.72,986.102 3967.95,990.672 3946.34,997.158C3951.58,973.572 3959.43,955.293 3969.91,942.321C3980.39,929.348 3994.47,920.061 4012.15,914.459L4012.79,914.258C4075.72,856.841 4131.49,802.219 4180.11,750.388C4237.09,689.654 4282.6,634.227 4316.65,584.106C4322.35,575.711 4327.68,567.523 4332.63,559.542C4312.66,560.124 4290.97,561.973 4267.53,565.09C4238.72,568.923 4210.07,572.903 4181.59,577.03C4153.1,581.158 4127.07,583.222 4103.5,583.222C4079.92,583.222 4063.39,578.21 4053.89,568.186C4044.4,558.162 4039.65,544.01 4039.65,525.731C4039.65,514.527 4042.27,502.439 4047.51,489.467C4078.29,493.595 4109.23,496.69 4140.33,498.754C4171.44,500.818 4203.03,501.85 4235.12,501.85C4261.97,501.85 4288.98,501.113 4316.16,499.638C4332.38,498.759 4348.89,497.721 4365.7,496.526Z" style="fill:rgb(17,97,39);fill-rule:nonzero;stroke:black;stroke-width:10px;stroke-linecap:butt;stroke-miterlimit:2;"/>
        </g>
        <path d="M3833.57,933.972C3807.55,933.972 3784.36,927.12 3763.98,913.417C3743.61,899.713 3727.66,880.593 3716.12,856.059C3704.58,831.525 3698.81,803.564 3698.81,772.178C3698.81,739.465 3704.09,709.074 3714.64,681.003C3725.2,652.932 3740.05,628.508 3759.2,607.731C3778.34,586.954 3800.8,570.708 3826.58,558.994C3852.35,547.279 3880.21,541.422 3910.16,541.422C3946.49,541.422 3973.98,549.6 3992.64,565.956C4011.29,582.313 4020.62,606.184 4020.62,637.57C4020.62,660.999 4013.5,682.108 3999.26,700.895C3985.03,719.683 3965.51,734.382 3940.72,744.991C3915.93,755.601 3887.58,760.905 3855.66,760.905C3839.96,760.905 3825.23,760.132 3811.48,758.585C3797.74,757.037 3790.48,754.938 3777.71,752.285L3779.92,729.077L3801.17,729.077C3829.65,729.077 3854.44,724.767 3875.55,716.147C3896.66,707.526 3913.11,695.259 3924.89,679.345C3936.67,663.431 3942.56,645.085 3942.56,624.308C3942.56,608.836 3938.51,596.901 3930.41,588.501C3922.31,580.102 3910.89,575.903 3896.17,575.903C3877.51,575.903 3860.82,582.202 3846.09,594.801C3831.36,607.399 3818.85,623.756 3808.54,643.87C3798.23,663.983 3790.37,685.534 3784.97,708.521C3779.57,731.508 3776.87,753.39 3776.87,774.167C3776.87,813.069 3783.38,842.355 3796.39,862.027C3809.39,881.699 3828.66,891.535 3854.19,891.535C3902.3,891.535 3941.82,869.873 3972.75,826.551C3990.92,829.204 4000,835.172 4000,844.455C3978.89,875.399 3954.96,898.055 3928.2,912.422C3901.45,926.789 3869.9,933.972 3833.57,933.972Z" style="fill:rgb(17,97,39);fill-rule:nonzero;stroke:black;stroke-width:7.5px;stroke-linecap:butt;stroke-miterlimit:2;"/>
    </g>
</svg>
