<?xml version="1.0" encoding="UTF-8" standalone="no"?>
<!DOCTYPE svg PUBLIC "-//W3C//DTD SVG 1.1//EN" "http://www.w3.org/Graphics/SVG/1.1/DTD/svg11.dtd">
<svg width="100%" height="100%" viewBox="0 0 5100 1300" version="1.1" xmlns="http://www.w3.org/2000/svg" xmlns:xlink="http://www.w3.org/1999/xlink" xml:space="preserve" xmlns:serif="http://www.serif.com/" style="fill-rule:evenodd;clip-rule:evenodd;stroke-linecap:round;stroke-linejoin:round;stroke-miterlimit:1.5;">
    <g transform="matrix(0.82999,0,0,0.82708,-694.984,112.38)">
        <g transform="matrix(1,0,0,1,837,-136)">
            <g transform="matrix(1,0,0,1,0.937227,0)">
                <path d="M0,0L0,869C0,901.793 -1.936,935.364 1.17,968C7.932,1039.06 25.829,1108.24 53.424,1174C82.182,1242.53 124.755,1307.18 175.961,1361C239.961,1428.27 315.414,1482.95 401,1519.57C632.405,1618.6 908.989,1574.24 1098,1408.16C1148.49,1363.78 1192.92,1311.83 1227.4,1254C1277.56,1169.85 1309.49,1074.7 1318.83,977C1327.57,885.599 1324,792.852 1324,701L1324,0L0,0Z" style="fill:rgb(22,23,20);fill-rule:nonzero;"/>
            </g>
            <g transform="matrix(1.20907,0,0,1.20907,0.341062,0.124366)">
                <path d="M25.625,700.896C40.458,695.38 56.536,691.557 74.763,691.557C140.023,691.557 177.734,740.56 229.22,740.56C280.705,740.56 318.417,691.557 383.676,691.557C448.936,691.557 486.647,740.56 538.133,740.56C589.619,740.56 627.33,691.557 692.59,691.557C757.849,691.557 795.561,740.56 847.046,740.56C898.532,740.56 936.243,691.557 1001.5,691.557C1028.23,691.557 1050.34,699.779 1070.65,709.517L1070.66,711.381L1070.99,711.394C1070.61,741.269 1069.41,771.091 1066.58,800.735C1059.21,877.85 1034.01,952.952 994.414,1019.37C967.199,1065.02 932.13,1106.02 892.278,1141.05C743.092,1272.14 524.783,1307.15 342.135,1228.99C274.582,1200.08 215.026,1156.92 164.511,1103.83C124.094,1061.35 90.491,1010.32 67.793,956.228C46.012,904.323 31.885,849.719 26.548,793.631C24.097,767.872 25.625,741.374 25.625,715.49L25.625,700.896Z" style="fill:rgb(17,97,39);"/>
            </g>
            <g transform="matrix(1.20907,0,0,1.20907,0.341062,0.124366)">
                <path d="M25.424,610.968L25.424,29.587L1070.46,29.587L1070.46,582.888L1070.67,619.527C1050.35,609.783 1028.24,601.557 1001.5,601.557C936.243,601.557 898.532,650.56 847.046,650.56C795.561,650.56 757.849,601.557 692.59,601.557C627.33,601.557 589.619,650.56 538.133,650.56C486.647,650.56 448.936,601.557 383.676,601.557C318.417,601.557 280.705,650.56 229.22,650.56C177.734,650.56 140.023,601.557 74.763,601.557C56.451,601.557 40.308,605.416 25.424,610.968Z" style="fill:rgb(17,97,39);"/>
            </g>
            <g transform="matrix(1.20483,0,0,1.20907,-1981.58,126.478)">
                <path d="M1670.49,506.463C1685.42,500.911 1701.62,497.053 1720,497.053C1785.49,497.053 1823.33,546.055 1875,546.055C1926.67,546.055 1964.51,497.053 2030,497.053C2095.49,497.053 2133.33,546.055 2185,546.055C2236.67,546.055 2274.51,497.053 2340,497.053C2405.49,497.053 2443.33,546.055 2495,546.055C2546.67,546.055 2584.51,497.053 2650,497.053C2676.83,497.053 2699.02,505.278 2719.41,515.023L2719.46,524.19L2719.2,524.181L2719.2,568.383L2719.39,605.013C2699.01,595.274 2676.82,587.053 2650,587.053C2584.51,587.053 2546.67,636.055 2495,636.055C2443.33,636.055 2405.49,587.053 2340,587.053C2274.51,587.053 2236.67,636.055 2185,636.055C2133.33,636.055 2095.49,587.053 2030,587.053C1964.51,587.053 1926.67,636.055 1875,636.055C1823.33,636.055 1785.49,587.053 1720,587.053C1701.71,587.053 1685.57,590.875 1670.69,596.391L1670.69,582.003L1670.49,582.025L1670.49,506.463Z" style="fill:white;stroke:black;stroke-width:3px;"/>
            </g>
        </g>
        <g transform="matrix(1,0,0,1,805.558,-136)">
            <path d="M630,79C625.742,76.969 621.83,72.724 616.996,72.258C610.133,71.596 596.312,81.605 596.295,88.935C596.288,91.804 599.185,94.271 600,97C597.172,96.298 593.966,94.166 591.004,94.577C583.381,95.635 578.524,108.724 571.985,112.713C566.553,116.027 560.51,113.626 555,116.14C544.859,120.765 536.902,130.456 528.714,137.606C516.97,147.862 493.896,138.998 482.133,150.225C476.304,155.789 468.32,181.812 475.434,188.185C481.982,194.052 497.328,196.969 498.552,208.015C499.224,214.073 491.501,219.78 489.213,225C485.333,233.853 486,243.59 486,253C493.008,250.607 492.456,241.405 496.652,236.305C503.283,228.245 515.202,229.895 522.406,223.826C528.454,218.73 529.073,208.004 534.978,203.912C538.018,201.806 545.015,202.639 547.848,204.742C552.094,207.896 549.859,212.554 547.291,215.996C541.753,223.419 532.444,226.567 527.089,234.076C520.561,243.231 519.894,253.141 515.486,263C510.835,273.404 503.161,281.825 498.417,292.015C496.055,297.09 498.671,301.801 497.421,306.741C495.133,315.777 489.778,324.575 487.595,334C484.493,347.389 494.548,358.073 493.961,371C493.3,385.527 478.284,396.542 486.189,412C489.668,418.802 495.683,422.031 500.871,427.184C505.448,431.732 508.702,437.894 512.88,442.87C516.436,447.104 521.765,453.081 521.3,459C520.628,467.551 519.676,484.119 516.066,491.714C512.732,498.727 507.842,507.511 503.251,513.83C500.486,517.636 495.117,521.032 494.425,526C493.387,533.453 502.761,538.935 503.86,546C506.975,566.041 503.389,591.154 496.089,610C492.986,618.01 487.54,628.518 480.87,634.138C473.832,640.069 457.485,648.581 456,658C463.098,659.913 468.417,662.242 476,660C477.779,668.177 488.69,666.405 495,664.711C509.524,660.811 510.192,650.965 518.6,641.499C522.008,637.662 528.077,637.698 530.821,632.826C536.894,622.042 526.898,616.362 524.179,607.96C522.238,601.961 524.404,590.274 525.3,584C527.674,567.389 536.426,552.923 542.147,537.816C544.84,530.703 544.765,522.33 547.545,515C551.193,505.38 557.626,491.643 561.547,482.132C561.547,482.132 578.823,514.038 581.621,528C583.494,537.346 576.51,550.052 580.603,558.698C582.103,561.865 587.189,562.474 590,564.059C594.973,566.865 599.568,570.544 603.116,575.004C612.095,586.291 613.838,599.394 619.967,612C623.198,618.647 628.435,626.358 625.411,633.996C620.575,646.213 605.495,655.234 598,666C609.367,670.817 627.36,671.377 639,667.515C644.277,665.765 649.641,664.699 651.991,658.995C655.68,650.04 649.197,640.792 651.182,632.015C652.533,626.042 658.384,624.029 657.938,617C657.21,605.545 645.769,601.271 641.865,591.985C637.557,581.74 631.213,568.666 628.873,558C627.599,552.19 629.281,545.895 627.299,540C625.076,533.39 620.341,527.666 618.105,521C615.664,513.724 616.005,503.668 616,496C631.523,496.002 647.282,499.982 663,500.791C674.481,501.381 686.418,499.019 698,499C707.35,498.984 717.369,490.396 725.957,496.653C737.808,505.287 729.532,524.018 739.703,533.142C742.751,535.876 748.252,534.959 752,535.004C760.37,535.104 781.315,541.185 780.502,552C779.955,559.27 774.268,565.487 771.424,572C761.396,594.966 748.886,613.919 731.624,631.776C722.406,641.313 709.139,648.435 703,661C719.599,666.522 743.651,671.842 756.682,656.711C760.705,652.039 758.168,644.884 762.318,640.329C767.435,634.712 776.997,636.686 780.682,629.956C785.66,620.865 780.543,610.653 786.948,601C794.52,589.587 804.058,579.296 811.904,568C815.706,562.526 820.357,558.911 821.532,552C823.463,540.638 815.319,532.683 808.619,524.911C806.527,522.483 801.122,516.063 803.813,512.604C806.771,508.803 813.775,513.325 817,514.461C822.085,516.252 828.372,516.083 832.674,519.652C838.534,524.513 841.018,532.417 847.015,537.38C857.583,546.128 868.801,535.958 878.999,542.01C886.463,546.44 886.623,552.627 888.834,560C893.711,576.265 893.712,596.006 892.961,613C891.929,636.312 856.734,640.962 855,664C869.251,664.305 895.922,677.009 906.081,660.7C911.504,651.994 908.394,638.844 914.653,631.148C920.583,623.857 933.984,629.484 932.812,615C931.595,599.967 915.115,598.893 914.09,585C912.944,569.463 913,553.59 913,538C913,531.991 914.786,522.468 911.972,517.015C909.75,512.709 904.645,510.882 901,508.037C892.271,501.223 877.183,489.779 873.475,479C868.837,465.521 868.868,450.982 867.911,437C866.605,417.932 865,399.159 865,380C869.941,381.45 874.644,385.105 880,384.697C921.747,381.513 933.905,317.238 907.957,291.04C899.993,283 889.17,278.978 878,282.059C870.98,283.995 864.149,290.403 866,298C869.486,296.386 872.944,292.26 877,292.542C902.125,294.286 906.129,340.643 886,350.822C861.284,363.32 835.656,337.491 814,330.1C792.549,322.78 770.795,327.418 749,328.911C736.694,329.753 724.386,326.991 712,328.17C694.744,329.812 671.205,334.294 655,326.275C644.255,320.958 629.119,299.306 628.279,287C627.32,272.967 632.64,258.11 632.985,244C633.231,233.958 631.116,213.287 637.684,205.264C644.439,197.013 668.908,192.001 679,192C671.655,176.892 656.128,178.839 643.015,173.366C637.928,171.243 634.833,166.872 630.83,163.314C628.233,161.006 623.23,159.173 622.043,155.671C619.927,149.428 628.216,143.588 631.664,139.711C645.31,124.371 663.625,118.336 683,126.901C689.88,129.942 694.35,134.683 700.089,139.24C708.994,146.31 717.575,153.327 723.911,163.093C749.798,202.999 740.96,253.959 728,296C739.14,294.759 742.234,280.292 744.427,271C747.712,257.086 751.329,243.429 751.961,229C752.429,218.302 749.287,201.233 749.287,190.472C749.287,190.472 756.691,238.75 752.985,256C750.028,269.766 743.212,284.116 742,298C752.608,295.842 757.633,279.295 760.254,270C768.423,241.026 767,209.801 767,180L761,179C769.199,177.795 768.482,157.139 764.544,151.323C762.186,147.841 755,152 755,152C759.898,144.461 762.046,135.808 758.157,127.015C755.442,120.878 747.649,115.017 742,120C741.957,116.306 743.389,112.704 742.603,109C740.264,97.992 727.072,82.162 717,92C717,88.106 717.903,82.655 715.258,79.418C710.032,73.024 691.524,65.685 686,76C679.773,61.387 656.115,59.459 654,73C654,73 651.86,66.202 649,66C644.411,65.676 627.307,64.619 626.465,71.058C626.121,73.689 628.962,76.71 630,79Z" style="fill:rgb(22,23,20);fill-rule:nonzero;"/>
            <path d="M629,71C626.613,72.763 634.717,78.17 631.044,79.99C625.093,82.938 619.697,72.397 613,75.859C609.486,77.675 600.655,83.931 599.905,88.12C599.242,91.824 605.122,94.893 600.747,98.378C597.655,100.842 594.493,97.918 591.188,98.447C588.055,98.948 581.229,107.997 580.907,111.07C580.451,115.421 586.176,115.813 588.906,117.274C592.481,119.187 592.799,122.696 595.585,125.069C597.912,127.052 601.222,127.111 603.428,129.419C605.866,131.969 605.729,136.127 608.433,138.392C614.893,143.803 619.741,128.453 624.015,125.591C639.675,115.105 655.401,105.146 675,108.325C736.342,118.276 761.927,197.06 755.871,251C754.171,266.142 747.069,280.255 744,295C752.39,290.015 767.904,267.01 765.391,182.77C765.669,180.779 760.046,182.346 760.046,179.981C760.047,177.345 763.014,175.433 763.682,172.911C765.235,167.043 766.632,156.877 762,152C759.452,151.342 755.358,156.487 754.047,152.758C752.212,147.537 759.054,140.704 757.468,134C756.351,129.282 753.587,124.263 748.982,122.243C746.37,121.098 741.856,122.289 740.153,119.643C738.503,117.08 740.076,112.938 739.397,110.004C737.962,103.809 730.381,91.253 723.089,91.198C720.723,91.181 717.686,96.6 716,95C714.314,93.4 716.345,84.697 712.972,81.599C709.154,78.093 699.917,72.363 693.093,73.962C690.114,73.586 687.961,78.928 685.08,78.08C682.049,77.186 679.2,70.112 674.907,68.603C670.615,67.095 663.167,66.228 659.325,69.027C656.835,69.716 656.077,74.607 653.785,74.448C651.493,74.289 648.767,68.482 645.573,68.071C641.585,67.558 631.511,69.146 629,71Z" style="fill:rgb(252,241,14);fill-rule:nonzero;"/>
            <path d="M618,149C623.521,145.662 626.874,138.926 631.2,134.184C637.751,127.003 648.302,121.349 658,120.184C677.35,117.862 694.318,128.459 707.996,140.926C749.761,178.994 748.688,242.25 732,292C737.056,289.149 737.574,284.073 739.463,279C743.802,267.348 747.481,255.45 748.13,243C748.966,226.981 750.578,210.037 747.737,194C746.518,187.117 743.123,173.265 739.887,167.31C728.022,145.475 717.83,129.073 695.342,116.829C668.807,104.156 622.407,111.687 618,149Z" style="fill:rgb(252,241,14);fill-rule:nonzero;"/>
            <path d="M560.354,127.338C571.877,121.382 582,125 582,125C582,125 563.708,130.554 568.506,142.332C580.848,134.187 594,144 594,144C594,144 580.945,143.127 577.059,150.019C575.806,152.24 573.797,156.797 576.604,158.731C582.977,151.934 593.597,158.318 599,159C590.309,167.213 572.749,163.556 575,179C590.772,168.023 600.642,177.415 610,179C610.032,190.143 619.631,198.552 631,198.552C643.889,198.552 657.677,189.162 671,188C671,188 665.764,185.236 663,186C662.716,177.359 643.783,178.641 637,176.306C631.295,174.342 630.722,170.41 627.199,166.398C620.027,158.23 615.892,157.246 616,145C606.518,143.198 601.313,137.612 598.235,130.621C579.732,106.473 563.111,116.117 560.354,127.338Z" style="fill:white;fill-rule:nonzero;"/>
            <path d="M482,158C482,158 498.614,155.339 500.669,161.184C503.01,167.845 492.744,167.685 490,163C479.245,166.807 477.05,175.457 479,186C479,186 499.258,175.071 506.423,180.317C510.313,183.165 506.668,187.431 502.995,187.907C497.259,188.651 486,188 486,188C492.286,192.445 504.236,202.256 502.647,211C500.425,223.228 486.134,228.672 489,243C500.453,220.235 520.159,223.957 514,204C518.229,208.141 517,214.439 517,220C523.202,217.451 530.676,207.022 527.833,200.054C526.252,196.178 522.158,193.63 520,190C525.575,190.258 529.775,194.022 535.015,195.486C541.675,197.348 548.497,196.824 555,198.495C560.661,199.949 565.929,202.487 571.867,199.968C581.876,195.72 570.546,183.006 570.058,176.996C569.564,170.919 572.483,168.184 573.584,162.889C574.129,160.27 571.936,159.618 570,159C575.922,146.684 562.699,142.533 553,145C554.2,140.946 562.631,133.35 558.378,128.84C553.268,123.422 546.308,130.129 542.5,133.71C538.645,137.335 535.562,141.631 530.714,144.116C521.061,149.063 508.418,148.371 498,150.464C492.085,151.652 487.243,155.219 482,158Z" style="fill:white;fill-rule:nonzero;"/>
            <path d="M547,156C547.063,161.286 551.539,170.453 558.278,165.681C562.033,163.023 567,156 567,156C558.33,151.007 547,152.333 543,150C540.697,148.656 543,142 543,142C532.495,144.94 538.007,155.894 547,156Z" style="fill:rgb(22,23,20);fill-rule:nonzero;"/>
            <path d="M551.088,158.437C551.088,158.437 554.659,159.892 557,159C559.154,158.304 558.205,155.849 558.205,155.849L551.088,158.437Z" style="fill:white;fill-rule:nonzero;"/>
            <path d="M502,174C502,174 514.773,169.545 517,163C523.505,165.745 534.005,165.639 537,158C532.857,158.192 529.028,160.382 525,160.411C521.579,160.436 518.406,157.617 515.04,158.073C509.589,158.813 503.255,169.194 502,174Z" style="fill:rgb(22,23,20);fill-rule:nonzero;"/>
            <path d="M617,186C617,186 626.161,190.368 631.089,190.491C637.756,190.658 657,187 657,187C650.948,184.437 643.433,184.091 637.004,182.471C628.792,180.403 617.695,171.075 617,186Z" style="fill:rgb(22,23,20);fill-rule:nonzero;"/>
            <path d="M611.065,196.906C603.518,177.828 586.846,178.04 579.613,190.25C587.436,187.908 591.301,191 591.301,191C591.301,191 578.819,193.69 579.176,201.084C585.705,200.02 590,203 590,203C582.616,205.272 575.49,208.955 568,210.802C564.592,211.643 560.59,210.363 557.44,211.942C552.728,214.304 550.46,220.539 546.571,224.025C535.471,233.975 524.283,236.531 522,257C525.016,251.873 530.8,250.131 530.8,250.131C528.575,254.729 522.599,260.687 519.875,265C516.621,270.151 515.849,275.883 512.15,281C507.487,287.452 499.885,292.233 503,302C508.964,292.346 517,294 517,294C517,294 500.85,303.677 497.025,320.039C491.841,333.471 491.721,354.4 498.306,367.334C499.733,351.844 515.469,343.038 517,333C528.84,330.897 530.638,324.068 538.39,316.514C546.319,308.787 554.539,302.228 559.664,292C565.926,279.499 567.87,263.749 585,263C585,263 577.535,266.735 575,269C572.202,271.5 570.34,277.38 568.21,282.001C563.674,291.84 559.62,301.809 553.598,310.961C550.275,316.011 544.661,318.871 541.085,323.495C536.041,330.017 536.001,341.186 536,349C530.596,345.843 534.228,332.331 526.971,333.453C519.448,334.615 518.288,342.521 514.285,347.424C505.566,358.105 503.04,367.905 497.722,380C495.27,385.578 490.611,389.809 489.38,396C488.399,400.938 490.296,411.826 494.571,415.046C507.253,424.989 499,404 499,404C511.97,402.013 508.195,414.897 508.804,423C509.342,430.163 512.048,439.438 519,441C515.991,437.424 517,430 517,430C526.163,438.408 521.16,458.542 539,458C537.19,457.369 538,448 538,448C540.119,456.15 551.675,469.414 559,469C557.051,464.891 560,462 560,462L574.441,498.015C574.441,498.015 581.861,518.07 586.121,523.401C589.319,527.403 600,530 600,530C586.461,526.787 582.259,549.727 587,553C587.193,551.146 591,546 591,546C591,546 589.859,551.847 592,555C593.108,552.363 602,546 602,546C602,546 601.31,554.705 598,559C600.136,564.515 610.645,571.417 614.815,579.089C619.397,587.518 625.492,609.576 625.492,609.576L632.559,621.262L641,630C631.685,627.203 631.429,632.318 633,640C634.938,640.507 636.993,641.317 639.004,641.44C653.524,642.325 637.796,619.082 648,613L649,622C655.576,617.506 651.454,611.472 647.791,606.132C645.48,602.764 641.217,602.048 638.853,598.786C633.069,590.805 632.231,578.988 628.325,570.039C626.397,565.621 622.22,563.153 620,559C624.488,558.038 624.232,546.108 622.306,542.389C617.956,533.992 613.231,524.472 611.389,515C610.291,509.354 611.441,502.681 609.694,497.222C608.052,492.089 601.381,489.11 599.972,484.917C598.971,481.938 599.217,476.423 602.097,476.392C602.098,481.077 608,484 608,484C608.785,477.832 619.112,468.095 615,463C607.509,459.095 615.524,446.043 618.857,441.21C622.19,436.377 632,429 632,429C632,429 615.525,450.726 618,458C623.058,457.379 614.446,493.193 624,492C620.782,477.383 627.82,468.374 627.82,468.374C626.365,476.213 624.526,480.524 628.177,487.937C633.331,496.196 641.878,494.331 642,484C642,484 648.53,500.11 666,495C668.631,487.943 667.289,480.657 663,473C670.649,473.662 665.961,492.332 677.996,492.422C686.283,492.484 684.16,482.762 678,481C679.782,479.359 682.061,477.584 684.412,479.647C688.099,482.884 687.588,489.755 691.688,493.272C700.565,500.89 709.687,474.426 705,472C714.377,468.724 707.337,484.773 710,487C712.663,489.227 719.013,489.462 721.976,485.362C726.444,479.178 726.259,467.27 728.595,460C730.694,453.469 733.172,443.8 736.598,438.043C740.154,432.068 745.221,428.397 746.442,421C747.274,415.963 745.185,408.964 744,404C749.163,406.834 755.778,417.726 753.411,423.871C750.916,430.352 743.456,435.709 740.274,442.286C735.261,452.645 735.374,466.77 733.791,478C732.775,485.206 731.428,492.701 734,495C734.802,492.84 739,487 739,487C736.164,502.264 739.071,514.443 743,529C750.247,524.772 747.82,511.344 750,506C751.374,502.632 756.077,496.937 756.077,496.937C756.077,496.937 750.28,522.744 754,531C759.193,527.521 777,522 777,522C777,522 772.635,527.888 766,532C766.898,536.992 783.789,539.06 786.396,546.015C789.358,553.917 782.696,562.682 778.963,569C771.552,581.543 766.183,595.956 759.501,609C757.875,612.175 756.138,616.988 753.491,619.411C751.155,621.549 729.935,629.382 743.059,634.848C762.062,642.763 755.323,615.241 770,616C770.316,620.485 771.258,624.385 767,627C767,627 768.242,634.045 773.272,629.257C779.155,623.658 774.061,611.312 777.609,604C783.879,591.078 796.255,578.409 805.12,567.001C808.945,562.077 814.315,558.422 815.531,552C817.802,540.006 808.288,535.334 802.378,526.714C797.161,519.106 793,501 793,501C792.575,495.625 786.226,487.097 787.122,483.05C788.052,478.851 799.282,471.666 802.511,467.714C809.88,458.695 812.717,448.065 815,437C815,437 816.35,450.048 814.066,455.985C811.052,463.818 800.261,477.664 797.917,484C796.735,487.193 800,494 800,494C818.936,486.992 822.025,459.764 827.22,443C835.117,417.514 866.387,388.831 842.812,361.734C839.688,358.143 836.226,356.838 832,355C844.975,354.879 873.967,375.909 876,381C885.378,380.57 886.998,377.347 884,369C893.574,374.875 907.743,365.439 910.114,357.685C905.646,357.84 905.47,357.978 904,357C904,357 918.812,343.86 917,334C912.783,334.12 912,333 912,333C916.303,325.265 917.334,318.67 914,312C910.213,314.245 908,314 908,314C917.202,293.243 883.223,274.772 870.515,291.125C881.432,285.664 889.89,291.065 895.066,297.044C907.454,311.355 910.475,349.77 887,356.428C870.395,361.138 849.9,356.65 835,348.88C825.136,343.737 814.996,335.863 804,333.518C785.202,329.509 766.723,334.171 748,334.961C731.648,335.651 715.523,332.958 699,334.089C682.072,335.249 660.521,339.808 645.184,329.787C638.37,325.335 634.437,316.022 630.938,309.015C627.684,302.501 622.796,298.518 621.464,291C616.961,265.581 629.89,238.428 626.87,213C625.729,203.387 614.123,204.636 611.065,196.906Z" style="fill:white;fill-rule:nonzero;"/>
            <path d="M557,250L573,235C575.521,259.011 526,292 526,292C537.384,291.992 551.76,286.372 559.468,277.7C563.664,272.979 564.855,266.156 570.13,262.312C576.233,257.866 599,242 599,242C599,242 577.963,247.297 574,253C574.287,242.481 577.035,237.357 580,232C584.974,232.189 587,228 587,228C587,228 582.705,231.167 580,229C574.769,224.809 585.28,215.267 592,212C578.268,213.711 570.828,227.349 563.481,238.003C560.676,242.07 557.398,244.906 557,250Z" style="fill:rgb(22,23,20);fill-rule:nonzero;"/>
            <path d="M552,320C558.514,313.889 563,314 563,314C563,314 558.524,327.028 557.289,333C556.147,338.522 557.2,344.426 555.591,349.83C553.21,357.83 547.346,374.608 543,381C532.993,384.01 538.497,396.449 546,398C541.749,387.593 546.619,383.21 551.005,373.714C554.708,365.699 557.927,355.406 562.723,348.129C567.241,341.274 578.717,333.971 578,329C565.075,342.224 562,340 562,340C562,340 564.653,314.437 570,304C577.114,289.781 587,284 587,284C573.308,286.717 572.683,298.858 564.431,307.53C560.344,311.825 552.298,315.566 552,320Z" style="fill:rgb(22,23,20);fill-rule:nonzero;"/>
            <path d="M559,386C559,386 560.958,378.117 563,375C566.167,370.167 576.563,369.252 580,357C583.135,351.345 595,350 595,350C582.906,345.291 574.026,360.349 568.157,367.607C566.312,369.89 562.878,370.527 561.603,373.275C560.025,376.672 559.456,382.258 559,386Z" style="fill:rgb(22,23,20);fill-rule:nonzero;"/>
            <path d="M858,381C858,399.743 847.774,416.127 840.175,433C832.655,449.697 827.603,467.146 820.521,484C817.216,491.865 807.642,497.556 807,506C813.778,506.057 821.474,511.769 827.852,510.578C832.631,509.686 831.583,500.347 829.411,497.518C826.983,494.354 823.912,492.667 822,489C822,489 836.392,497.121 840,497C840.784,495.43 840,491 840,491C840,491 848.511,501.022 849,506C842.352,506.752 840.95,500.971 837.308,502.618C833.379,504.395 837.329,509.543 838.279,512.015C842.236,522.311 846.275,531.337 855,537C855.723,531.051 867,518 867,518C867,518 860.349,534.247 862,537C866.812,532.954 882,528 882,528C882,528 880.207,531.378 876,534C879.645,535.775 885.505,536.899 888,542C888,542 900.179,590.954 898.96,616C898.611,623.175 893.383,628.052 893,635C902.085,634.974 907.627,631.932 911.557,623.576C912.789,620.956 912.7,616.449 915.313,614.752C920.317,611.501 926,623 926,623C927.256,616.235 926.874,609.23 921.776,603.889C917.077,598.966 910.525,597.847 908.43,589.985C902.96,569.46 914.118,542.749 905.076,523.001C901.258,514.661 892.604,510.4 886.089,504.675C875.637,495.491 863.76,481.563 858,469C858,469 861.416,468.945 864,471C866.241,469.404 863.015,452 863.015,452L860.129,401.961L858,381Z" style="fill:white;fill-rule:nonzero;"/>
            <path d="M604,384C581.709,395.328 585.706,437.001 588.441,441.199C589.7,435.898 601,427 601,427C603.089,435.628 598,462 598,462C598,462 609.858,446.697 609.738,438C609.671,433.125 606.402,429.293 606.819,424C607.294,417.984 610.47,411.167 612,408C612.725,406.499 616,405 616,405C605.042,405.265 605.813,414.571 600.165,421.95C597.268,425.734 590.259,428.298 589.611,433.572C588.262,431.276 589.95,416.177 592.074,408.17C594.241,400.003 604,384 604,384Z" style="fill:rgb(22,23,20);fill-rule:nonzero;"/>
            <path d="M643,443C642.92,452.646 635.488,471.497 651,472C651,472 646.382,466.395 645.444,462.995C644.111,458.162 643,443 643,443Z" style="fill:rgb(22,23,20);fill-rule:nonzero;"/>
            <path d="M655,455C654.077,462.47 654.074,470.17 662.526,472.399L655,455Z" style="fill:rgb(22,23,20);fill-rule:nonzero;"/>
            <path d="M525,506C529.05,508.212 529.637,511.594 530,516C530,516 516.611,512.828 516,502C513.199,506.699 510.906,514.775 508.406,518.942C506.529,522.07 501,527 501,527C508.223,530.581 517,525 517,525C515.942,531.639 507.96,529.678 506.902,534.225C505.359,540.855 513.208,549.797 512.857,557C512.036,573.837 506.666,591.362 503.75,608C503.109,611.654 502.922,616.633 500.988,619.857C498.6,623.835 490.857,626.577 494.067,632.74C497.516,639.361 506.059,638.356 510.44,633.505C517.422,615.843 520.907,630.418 522,630C523.093,629.583 519.757,632.219 517,631C516.288,634.985 524.768,634.604 525.771,628.995C527.345,620.192 519.895,618.442 517.692,611.867C515.292,604.703 519.271,590.559 520.17,583C521.4,572.661 526.319,565.376 529.107,555.985C529.989,553.014 528.888,549.932 529.963,547.001C532.569,539.891 538.094,535.999 539.471,528C540.631,521.256 536.55,512.973 536,506C536,506 539.873,512.327 543.443,510.319C546.809,508.424 546.755,503.586 548.1,500.424C551.9,491.496 561.924,478.127 549,473L538,501C534.747,489.992 546.94,478.724 540.566,468.108C537.081,462.302 527.468,460.188 525.63,468.005C522.418,481.671 521.931,492.895 525,506Z" style="fill:white;fill-rule:nonzero;"/>
            <g>
                <g transform="matrix(1,0,0,1,31.4421,0)">
                    <path d="M597.829,637.214C591.587,640.626 584.617,655.722 574.303,663.025C576.995,666.486 606.456,665.383 612.698,661.971C618.477,658.812 617.952,645.842 615.26,642.38C609.073,646.217 597.449,649.154 597.829,637.214Z" style="fill:rgb(252,241,14);"/>
                </g>
                <g transform="matrix(1,0,0,1,31.4421,0)">
                    <path d="M856.199,633.504C857.446,625.116 829.306,654.516 830.091,659.57C834.878,661.167 853.431,667.814 860.914,663.826C868.398,659.838 878.198,641.956 877.412,636.902C876.74,631.934 854.512,644.861 856.199,633.504Z" style="fill:rgb(252,241,14);"/>
                </g>
                <g transform="matrix(1,0,0,1,31.4421,0)">
                    <path d="M704.551,634.039C697.33,636.767 683.236,650.275 679.136,657.12C679.624,661.491 700.293,664.804 707.804,662.044C717.96,658.362 724.691,644.933 724.204,640.562C723.716,636.191 704.57,641.077 704.551,634.039Z" style="fill:rgb(252,241,14);"/>
                </g>
                <g transform="matrix(1,0,0,1,31.4421,0)">
                    <path d="M457.7,633.613C452.838,635.454 435.179,647.599 433.085,653.44C429.271,664.235 452.663,646.16 452.628,651.028C449.684,654.673 447.01,659.035 451.285,661.181C467.458,660.653 476.842,652.212 484.469,637.714C486.583,634.297 468.433,641.365 463.971,640.681C460.858,640.204 460.646,632.498 457.7,633.613Z" style="fill:rgb(252,241,14);"/>
                </g>
            </g>
        </g>
        <g transform="matrix(1,0,0,1,1322.64,87.8144)">
            <g>
                <g transform="matrix(1,0,0,1,-43,31)">
                    <g transform="matrix(0.987688,-0.156434,0.156434,0.987688,64.9249,-46.4645)">
                        <path d="M552.312,310.003C587.058,367.852 586.077,426.358 552.743,618.804C563.478,483.986 585.342,376.554 552.312,310.003Z" style="fill:rgb(252,241,14);stroke:black;stroke-width:3.62px;"/>
                    </g>
                    <g transform="matrix(0.992546,-0.121869,0.121869,0.992546,104.931,-40.2562)">
                        <path d="M552.312,310.003C587.058,367.852 586.077,426.358 552.743,618.804C563.478,483.986 585.342,376.554 552.312,310.003Z" style="fill:rgb(252,241,14);stroke:black;stroke-width:3.62px;"/>
                    </g>
                    <g transform="matrix(0.990268,-0.139173,0.139173,0.990268,51.1831,-29.4184)">
                        <path d="M552.312,310.003C587.058,367.852 586.077,426.358 552.743,618.804C563.478,483.986 585.342,376.554 552.312,310.003Z" style="fill:rgb(252,241,14);stroke:black;stroke-width:3.62px;"/>
                    </g>
                    <g transform="matrix(0.996195,-0.0871557,0.0871557,0.996195,143.99,-32.5702)">
                        <path d="M552.312,310.003C587.058,367.852 586.077,426.358 552.743,618.804C563.478,483.986 585.342,376.554 552.312,310.003Z" style="fill:rgb(252,241,14);stroke:black;stroke-width:3.62px;"/>
                    </g>
                    <g transform="matrix(0.992546,-0.121869,0.121869,0.992546,37.9315,-11.2562)">
                        <path d="M552.312,310.003C587.058,367.852 586.077,426.358 552.743,618.804C563.478,483.986 585.342,376.554 552.312,310.003Z" style="fill:rgb(252,241,14);stroke:black;stroke-width:3.62px;"/>
                    </g>
                </g>
                <g>
                    <g transform="matrix(1,0,0,1,-490.752,-128.5)">
                        <path d="M1198,783C1198,783 1167.97,803.51 1157.6,817.325C1152.65,823.91 1154.72,848.303 1157,856C1169.67,847.011 1191.77,832.197 1197.18,817C1200.59,807.426 1198,793.124 1198,783Z" style="fill:rgb(252,241,14);fill-rule:nonzero;stroke:black;stroke-width:3.62px;stroke-linecap:butt;stroke-miterlimit:2;"/>
                    </g>
                    <g transform="matrix(-1,0,0,1,1816.75,-128.5)">
                        <path d="M1198,783C1198,783 1167.97,803.51 1157.6,817.325C1152.65,823.91 1154.72,848.303 1157,856C1169.67,847.011 1191.77,832.197 1197.18,817C1200.59,807.426 1198,793.124 1198,783Z" style="fill:rgb(252,241,14);fill-rule:nonzero;stroke:black;stroke-width:3.62px;stroke-linecap:butt;stroke-miterlimit:2;"/>
                    </g>
                </g>
                <g transform="matrix(1,0,0,1,0,-45)">
                    <g transform="matrix(1,0,0,1,-490.752,-128.5)">
                        <path d="M1198,783C1198,783 1167.97,803.51 1157.6,817.325C1152.65,823.91 1154.72,848.303 1157,856C1169.67,847.011 1191.77,832.197 1197.18,817C1200.59,807.426 1198,793.124 1198,783Z" style="fill:rgb(252,241,14);fill-rule:nonzero;stroke:black;stroke-width:3.62px;stroke-linecap:butt;stroke-miterlimit:2;"/>
                    </g>
                    <g transform="matrix(-1,0,0,1,1816.75,-128.5)">
                        <path d="M1198,783C1198,783 1167.97,803.51 1157.6,817.325C1152.65,823.91 1154.72,848.303 1157,856C1169.67,847.011 1191.77,832.197 1197.18,817C1200.59,807.426 1198,793.124 1198,783Z" style="fill:rgb(252,241,14);fill-rule:nonzero;stroke:black;stroke-width:3.62px;stroke-linecap:butt;stroke-miterlimit:2;"/>
                    </g>
                </g>
                <g transform="matrix(1,0,0,1,0,-90)">
                    <g transform="matrix(1,0,0,1,-490.752,-128.5)">
                        <path d="M1198,783C1198,783 1167.97,803.51 1157.6,817.325C1152.65,823.91 1154.72,848.303 1157,856C1169.67,847.011 1191.77,832.197 1197.18,817C1200.59,807.426 1198,793.124 1198,783Z" style="fill:rgb(252,241,14);fill-rule:nonzero;stroke:black;stroke-width:3.62px;stroke-linecap:butt;stroke-miterlimit:2;"/>
                    </g>
                    <g transform="matrix(-1,0,0,1,1816.75,-128.5)">
                        <path d="M1198,783C1198,783 1167.97,803.51 1157.6,817.325C1152.65,823.91 1154.72,848.303 1157,856C1169.67,847.011 1191.77,832.197 1197.18,817C1200.59,807.426 1198,793.124 1198,783Z" style="fill:rgb(252,241,14);fill-rule:nonzero;stroke:black;stroke-width:3.62px;stroke-linecap:butt;stroke-miterlimit:2;"/>
                    </g>
                </g>
                <g transform="matrix(1,0,0,1,0,-135)">
                    <g transform="matrix(1,0,0,1,-490.752,-128.5)">
                        <path d="M1198,783C1198,783 1167.97,803.51 1157.6,817.325C1152.65,823.91 1154.72,848.303 1157,856C1169.67,847.011 1191.77,832.197 1197.18,817C1200.59,807.426 1198,793.124 1198,783Z" style="fill:rgb(252,241,14);fill-rule:nonzero;stroke:black;stroke-width:3.62px;stroke-linecap:butt;stroke-miterlimit:2;"/>
                    </g>
                    <g transform="matrix(-1,0,0,1,1816.75,-128.5)">
                        <path d="M1198,783C1198,783 1167.97,803.51 1157.6,817.325C1152.65,823.91 1154.72,848.303 1157,856C1169.67,847.011 1191.77,832.197 1197.18,817C1200.59,807.426 1198,793.124 1198,783Z" style="fill:rgb(252,241,14);fill-rule:nonzero;stroke:black;stroke-width:3.62px;stroke-linecap:butt;stroke-miterlimit:2;"/>
                    </g>
                </g>
                <g transform="matrix(1,0,0,1,-22.5,-49.5497)">
                    <path d="M685.81,800.27C685.824,793.285 686.633,786.772 688.848,783.825C699.218,770.01 729.248,749.5 729.248,749.5C729.248,759.624 731.838,773.926 728.428,783.5C723.018,798.697 702.17,813.568 689.5,822.557C689.446,822.376 689.921,944.092 689.088,960.599C688.922,963.878 681.088,969.599 681.088,969.599C681.088,969.599 681.613,822.136 681.5,822.517C668.83,813.528 647.982,798.697 642.572,783.5C639.162,773.926 641.752,759.624 641.752,749.5C641.752,749.5 671.782,770.01 682.152,783.825C684.367,786.772 685.176,793.285 685.19,800.27L685.81,800.27Z" style="fill:rgb(252,241,14);fill-rule:nonzero;stroke:black;stroke-width:3.62px;stroke-linecap:butt;stroke-miterlimit:2;"/>
                </g>
                <g transform="matrix(1,0,0,1,0,50)">
                    <path d="M663.406,411.133C663.406,411.133 688.298,461.875 679.739,481.666C669.753,504.757 657.03,504.757 647.045,481.666C638.485,461.875 663.406,411.133 663.406,411.133Z" style="fill:rgb(252,241,14);fill-rule:nonzero;stroke:black;stroke-width:3.62px;stroke-linecap:butt;stroke-miterlimit:2;"/>
                </g>
            </g>
        </g>
        <g transform="matrix(-1,0,0,1,1666.59,87.8144)">
            <g>
                <g transform="matrix(1,0,0,1,-43,31)">
                    <g transform="matrix(0.987688,-0.156434,0.156434,0.987688,64.9249,-46.4645)">
                        <path d="M552.312,310.003C587.058,367.852 586.077,426.358 552.743,618.804C563.478,483.986 585.342,376.554 552.312,310.003Z" style="fill:rgb(252,241,14);stroke:black;stroke-width:3.62px;"/>
                    </g>
                    <g transform="matrix(0.992546,-0.121869,0.121869,0.992546,104.931,-40.2562)">
                        <path d="M552.312,310.003C587.058,367.852 586.077,426.358 552.743,618.804C563.478,483.986 585.342,376.554 552.312,310.003Z" style="fill:rgb(252,241,14);stroke:black;stroke-width:3.62px;"/>
                    </g>
                    <g transform="matrix(0.990268,-0.139173,0.139173,0.990268,51.1831,-29.4184)">
                        <path d="M552.312,310.003C587.058,367.852 586.077,426.358 552.743,618.804C563.478,483.986 585.342,376.554 552.312,310.003Z" style="fill:rgb(252,241,14);stroke:black;stroke-width:3.62px;"/>
                    </g>
                    <g transform="matrix(0.996195,-0.0871557,0.0871557,0.996195,143.99,-32.5702)">
                        <path d="M552.312,310.003C587.058,367.852 586.077,426.358 552.743,618.804C563.478,483.986 585.342,376.554 552.312,310.003Z" style="fill:rgb(252,241,14);stroke:black;stroke-width:3.62px;"/>
                    </g>
                    <g transform="matrix(0.992546,-0.121869,0.121869,0.992546,37.9315,-11.2562)">
                        <path d="M552.312,310.003C587.058,367.852 586.077,426.358 552.743,618.804C563.478,483.986 585.342,376.554 552.312,310.003Z" style="fill:rgb(252,241,14);stroke:black;stroke-width:3.62px;"/>
                    </g>
                </g>
                <g>
                    <g transform="matrix(1,0,0,1,-490.752,-128.5)">
                        <path d="M1198,783C1198,783 1167.97,803.51 1157.6,817.325C1152.65,823.91 1154.72,848.303 1157,856C1169.67,847.011 1191.77,832.197 1197.18,817C1200.59,807.426 1198,793.124 1198,783Z" style="fill:rgb(252,241,14);fill-rule:nonzero;stroke:black;stroke-width:3.62px;stroke-linecap:butt;stroke-miterlimit:2;"/>
                    </g>
                    <g transform="matrix(-1,0,0,1,1816.75,-128.5)">
                        <path d="M1198,783C1198,783 1167.97,803.51 1157.6,817.325C1152.65,823.91 1154.72,848.303 1157,856C1169.67,847.011 1191.77,832.197 1197.18,817C1200.59,807.426 1198,793.124 1198,783Z" style="fill:rgb(252,241,14);fill-rule:nonzero;stroke:black;stroke-width:3.62px;stroke-linecap:butt;stroke-miterlimit:2;"/>
                    </g>
                </g>
                <g transform="matrix(1,0,0,1,0,-45)">
                    <g transform="matrix(1,0,0,1,-490.752,-128.5)">
                        <path d="M1198,783C1198,783 1167.97,803.51 1157.6,817.325C1152.65,823.91 1154.72,848.303 1157,856C1169.67,847.011 1191.77,832.197 1197.18,817C1200.59,807.426 1198,793.124 1198,783Z" style="fill:rgb(252,241,14);fill-rule:nonzero;stroke:black;stroke-width:3.62px;stroke-linecap:butt;stroke-miterlimit:2;"/>
                    </g>
                    <g transform="matrix(-1,0,0,1,1816.75,-128.5)">
                        <path d="M1198,783C1198,783 1167.97,803.51 1157.6,817.325C1152.65,823.91 1154.72,848.303 1157,856C1169.67,847.011 1191.77,832.197 1197.18,817C1200.59,807.426 1198,793.124 1198,783Z" style="fill:rgb(252,241,14);fill-rule:nonzero;stroke:black;stroke-width:3.62px;stroke-linecap:butt;stroke-miterlimit:2;"/>
                    </g>
                </g>
                <g transform="matrix(1,0,0,1,0,-90)">
                    <g transform="matrix(1,0,0,1,-490.752,-128.5)">
                        <path d="M1198,783C1198,783 1167.97,803.51 1157.6,817.325C1152.65,823.91 1154.72,848.303 1157,856C1169.67,847.011 1191.77,832.197 1197.18,817C1200.59,807.426 1198,793.124 1198,783Z" style="fill:rgb(252,241,14);fill-rule:nonzero;stroke:black;stroke-width:3.62px;stroke-linecap:butt;stroke-miterlimit:2;"/>
                    </g>
                    <g transform="matrix(-1,0,0,1,1816.75,-128.5)">
                        <path d="M1198,783C1198,783 1167.97,803.51 1157.6,817.325C1152.65,823.91 1154.72,848.303 1157,856C1169.67,847.011 1191.77,832.197 1197.18,817C1200.59,807.426 1198,793.124 1198,783Z" style="fill:rgb(252,241,14);fill-rule:nonzero;stroke:black;stroke-width:3.62px;stroke-linecap:butt;stroke-miterlimit:2;"/>
                    </g>
                </g>
                <g transform="matrix(1,0,0,1,0,-135)">
                    <g transform="matrix(1,0,0,1,-490.752,-128.5)">
                        <path d="M1198,783C1198,783 1167.97,803.51 1157.6,817.325C1152.65,823.91 1154.72,848.303 1157,856C1169.67,847.011 1191.77,832.197 1197.18,817C1200.59,807.426 1198,793.124 1198,783Z" style="fill:rgb(252,241,14);fill-rule:nonzero;stroke:black;stroke-width:3.62px;stroke-linecap:butt;stroke-miterlimit:2;"/>
                    </g>
                    <g transform="matrix(-1,0,0,1,1816.75,-128.5)">
                        <path d="M1198,783C1198,783 1167.97,803.51 1157.6,817.325C1152.65,823.91 1154.72,848.303 1157,856C1169.67,847.011 1191.77,832.197 1197.18,817C1200.59,807.426 1198,793.124 1198,783Z" style="fill:rgb(252,241,14);fill-rule:nonzero;stroke:black;stroke-width:3.62px;stroke-linecap:butt;stroke-miterlimit:2;"/>
                    </g>
                </g>
                <g transform="matrix(1,0,0,1,-22.5,-49.5497)">
                    <path d="M685.81,800.27C685.824,793.285 686.633,786.772 688.848,783.825C699.218,770.01 729.248,749.5 729.248,749.5C729.248,759.624 731.838,773.926 728.428,783.5C723.018,798.697 702.17,813.568 689.5,822.557C689.446,822.376 689.921,944.092 689.088,960.599C688.922,963.878 681.088,969.599 681.088,969.599C681.088,969.599 681.613,822.136 681.5,822.517C668.83,813.528 647.982,798.697 642.572,783.5C639.162,773.926 641.752,759.624 641.752,749.5C641.752,749.5 671.782,770.01 682.152,783.825C684.367,786.772 685.176,793.285 685.19,800.27L685.81,800.27Z" style="fill:rgb(252,241,14);fill-rule:nonzero;stroke:black;stroke-width:3.62px;stroke-linecap:butt;stroke-miterlimit:2;"/>
                </g>
                <g transform="matrix(1,0,0,1,0,50)">
                    <path d="M663.406,411.133C663.406,411.133 688.298,461.875 679.739,481.666C669.753,504.757 657.03,504.757 647.045,481.666C638.485,461.875 663.406,411.133 663.406,411.133Z" style="fill:rgb(252,241,14);fill-rule:nonzero;stroke:black;stroke-width:3.62px;stroke-linecap:butt;stroke-miterlimit:2;"/>
                </g>
            </g>
        </g>
        <g transform="matrix(-1,0,0,1,2163.18,223.747)">
            <g transform="matrix(-0.854828,0,0,1.11146,1231.68,-489.66)">
                <ellipse cx="664.716" cy="1147.57" rx="20.472" ry="15.745" style="fill:rgb(235,235,235);stroke:black;stroke-width:2.44px;"/>
            </g>
            <path d="M663,606C762.345,606 843,686.655 843,786C843,885.345 762.345,966 663,966C563.655,966 483,885.345 483,786C483,686.655 563.655,606 663,606ZM719.6,903.046C702.488,911.345 683.283,916 663,916C642.774,916 623.621,911.371 606.534,903.111L663.1,846.545L719.6,903.046ZM584.607,889.683C575.049,882.441 566.524,873.914 559.289,864.356L620.1,803.545L645.422,828.868L584.607,889.683ZM766.797,864.242C759.574,873.808 751.056,882.347 741.506,889.597L680.777,828.868L706.1,803.545L766.797,864.242ZM545.954,729.4L602.422,785.868L545.868,842.422C537.623,825.352 533,806.212 533,786C533,765.717 537.655,746.512 545.954,729.4ZM780.111,729.534C788.371,746.621 793,765.774 793,786C793,806.161 788.4,825.257 780.197,842.288L723.777,785.868L780.111,729.534ZM637.777,785.868L663.1,811.19L688.422,785.868L663.1,760.545L637.777,785.868ZM584.758,682.203L645.422,742.868L620.1,768.19L559.403,707.494C566.651,697.948 575.19,689.43 584.758,682.203ZM741.356,682.289C750.914,689.524 759.444,698.05 766.683,707.607L706.1,768.19L680.777,742.868L741.356,682.289ZM719.422,668.868L663.1,725.19L606.712,668.803C623.743,660.6 642.839,656 663,656C683.212,656 702.352,660.623 719.422,668.868Z" style="fill:rgb(235,235,235);stroke:black;stroke-width:6.03px;"/>
            <path d="M638.775,655.714L638.775,643.5L666.275,605L687.225,605L659.825,643.5L659.825,653.538C660.882,653.512 661.94,653.5 663,653.5C668.806,653.5 674.526,653.874 680.145,654.601L683.946,642.928L722.013,614.831L741.934,621.316L703.962,649.444L700.853,658.995C707.412,660.949 713.759,663.398 719.843,666.297L727.075,656.366L771.969,641.433L788.905,653.766L744.091,668.758L738.164,676.896C743.759,680.759 749.044,685.042 753.972,689.701L763.926,682.495L811.238,682.193L823.524,699.162L776.27,699.545L768.158,705.419C772.287,710.797 776.013,716.5 779.291,722.484L790.879,718.748L835.961,733.105L842.39,753.045L797.339,738.782L787.941,741.812C790.194,748.177 791.975,754.763 793.241,761.529L805.286,761.563L843.709,789.171L843.65,810.121L805.227,782.613L795.457,782.585C795.486,783.722 795.5,784.859 795.5,786C795.5,791.763 795.131,797.44 794.415,803.016L805.732,806.735L833.721,844.881L827.181,864.783L799.16,826.733L790.04,823.736C788.077,830.346 785.612,836.741 782.687,842.878L792.173,849.827L806.98,894.763L794.599,911.663L779.733,866.808L772.079,861.2C768.175,866.849 763.844,872.18 759.134,877.147L765.941,886.604L766.11,933.917L749.106,946.155L748.856,898.901L743.389,891.305C737.947,895.467 732.173,899.217 726.117,902.508L729.613,913.455L715.128,958.497L695.171,964.87L709.56,919.859L706.76,911.091C700.328,913.345 693.667,915.116 686.821,916.361L686.757,927.742L659.042,966.088L638.092,965.97L665.707,927.624L665.759,918.472C664.841,918.491 663.921,918.5 663,918.5C656.945,918.5 650.984,918.093 645.152,917.306L641.584,928.062L603.36,955.944L583.476,949.348L621.604,921.434L624.468,912.801C617.826,910.782 611.404,908.256 605.248,905.266L598.53,914.382L553.553,929.063L536.687,916.635L581.584,901.895L587.011,894.53C581.371,890.571 576.052,886.184 571.099,881.413L561.826,888.047L514.514,888.084L502.323,871.046L549.578,870.927L557.071,865.567C552.948,860.089 549.24,854.282 545.994,848.191L535.077,851.644L490.077,837.033L483.759,817.059L528.73,831.574L537.569,828.778C535.372,822.344 533.656,815.685 532.466,808.845L520.91,808.748L482.643,780.926L482.819,759.976L521.087,787.699L530.512,787.778C530.504,787.184 530.5,786.592 530.5,786C530.5,779.652 530.947,773.409 531.813,767.29L520.717,763.574L492.942,725.273L499.594,705.407L527.402,743.614L536.453,746.645C538.498,740.069 541.043,733.713 544.041,727.618L534.518,720.56L519.963,675.541L532.438,658.71L547.052,703.648L554.871,709.443C558.822,703.876 563.192,698.626 567.934,693.741L560.956,683.929L561.051,636.617L578.123,624.474L578.109,671.729L583.831,679.773C589.267,675.714 595.024,672.062 601.06,668.86L597.434,657.282L612.17,612.323L632.163,606.061L617.522,650.991L620.492,660.477C626.41,658.471 632.515,656.872 638.775,655.714ZM663,661C731.989,661 788,717.011 788,786C788,854.989 731.989,911 663,911C594.011,911 538,854.989 538,786C538,717.011 594.011,661 663,661Z"/>
        </g>
    </g>
    <g transform="matrix(4.25884,0,0,3.83488,-4025.02,-2774.61)">
        <path d="M1387.02,805.384C1391.05,805.384 1394.46,806.92 1397.24,809.992C1400.02,813.064 1401.42,816.04 1401.42,818.92C1401.42,822.376 1399.74,824.92 1396.38,826.552C1393.02,828.184 1389.27,829.336 1385.14,830.008C1381.02,830.68 1377.08,831.016 1373.34,831.016L1366.86,831.016C1365.32,832.168 1363.06,833.656 1360.09,835.48C1357.11,837.304 1354.86,838.984 1353.32,840.52C1351.02,842.824 1348.57,845.512 1345.98,848.584C1343.38,851.656 1340.98,854.632 1338.78,857.512C1336.57,860.392 1334.7,863.08 1333.16,865.576C1331.62,868.072 1330.86,869.896 1330.86,871.048C1330.86,872.584 1331.34,873.928 1332.3,875.08C1333.26,876.232 1334.41,878.056 1335.75,880.552C1337.1,882.856 1338.68,885.016 1340.5,887.032C1342.33,889.048 1344.1,890.92 1345.83,892.648C1347.56,894.376 1349.19,895.864 1350.73,897.112C1352.26,898.36 1353.42,899.272 1354.18,899.848C1355.53,901.192 1356.97,903.016 1358.5,905.32C1360.04,907.624 1361.62,910.024 1363.26,912.52C1364.89,915.016 1366.57,917.464 1368.3,919.864C1370.02,922.264 1371.94,924.136 1374.06,925.48C1375.59,927.016 1377.56,928.744 1379.96,930.664C1382.36,932.584 1384.71,934.6 1387.02,936.712C1389.7,939.016 1392.58,941.416 1395.66,943.912L1401.42,943.912C1402.95,943.912 1405.06,943.816 1407.75,943.624C1410.44,943.432 1412.55,944.296 1414.09,946.216C1415.05,947.368 1416.2,949.432 1417.54,952.408C1418.89,955.384 1419.51,958.36 1419.42,961.336C1419.32,964.312 1417.98,967 1415.38,969.4C1412.79,971.8 1408.14,973.096 1401.42,973.288C1398.15,973.288 1395.56,973.24 1393.64,973.144C1391.72,973.048 1389.99,972.808 1388.46,972.424C1386.92,972.04 1385.34,971.464 1383.7,970.696C1382.07,969.928 1379.91,968.968 1377.22,967.816L1371.75,964.648C1369.26,963.688 1366.9,962.152 1364.7,960.04C1362.49,957.928 1360.33,955.432 1358.22,952.552C1354.18,948.136 1349.62,942.808 1344.54,936.568C1339.45,930.328 1334.89,924.424 1330.86,918.856C1328.17,914.056 1325.38,909.496 1322.5,905.176C1319.62,900.856 1316.84,897.448 1314.15,894.952C1311.27,892.84 1308.58,891.784 1306.09,891.784C1304.94,891.784 1303.74,892.36 1302.49,893.512C1301.24,894.664 1300.62,895.72 1300.62,896.68C1300.62,899.944 1301.14,903.352 1302.2,906.904C1303.26,910.456 1303.78,913.384 1303.78,915.688L1303.78,921.448L1306.09,926.92L1306.09,934.984C1306.09,940.36 1307.62,944.296 1310.7,946.792C1313.77,949.288 1317.18,951.112 1320.92,952.264C1324.66,953.416 1328.07,954.328 1331.14,955C1334.22,955.672 1335.75,956.968 1335.75,958.888C1335.75,961.192 1335.18,963.112 1334.02,964.648C1332.87,966.184 1331.53,967.432 1329.99,968.392C1328.46,969.352 1326.97,970.024 1325.53,970.408C1324.09,970.792 1323.18,970.984 1322.79,970.984L1318.76,969.544C1317.61,969.544 1316.89,969.784 1316.6,970.264C1316.31,970.744 1315.78,970.984 1315.02,970.984L1300.62,970.984C1298.89,970.792 1297.26,970.408 1295.72,969.832C1294.38,969.448 1293.03,968.968 1291.69,968.392C1290.34,967.816 1289.29,967.048 1288.52,966.088L1280.46,966.088C1279.69,966.088 1277.86,966.424 1274.98,967.096C1272.1,967.768 1268.94,968.536 1265.48,969.4C1262.02,970.264 1258.52,971.032 1254.97,971.704C1251.42,972.376 1248.68,972.712 1246.76,972.712L1243.59,972.712C1242.06,972.712 1240.42,972.28 1238.7,971.416C1236.97,970.552 1235.91,969.064 1235.53,966.952C1235.53,965.8 1235.96,964.216 1236.82,962.2C1237.69,960.184 1238.84,958.168 1240.28,956.152C1241.72,954.136 1243.21,952.36 1244.74,950.824C1246.28,949.288 1247.82,948.52 1249.35,948.52L1251.66,948.52L1260.58,946.216L1270.95,946.216C1272.1,946.216 1272.78,945.592 1272.97,944.344C1273.16,943.096 1273.26,941.8 1273.26,940.456L1273.26,934.984C1273.45,933.832 1273.64,932.68 1273.83,931.528C1274.22,929.032 1274.02,926.728 1273.26,924.616C1272.3,920.968 1272.06,917.464 1272.54,914.104C1273.02,910.744 1273.26,907.816 1273.26,905.32L1273.26,888.616C1273.26,886.12 1273.16,883.672 1272.97,881.272C1272.78,878.872 1272.1,877 1270.95,875.656L1270.95,862.12C1271.34,859.432 1271.72,857.032 1272.1,854.92C1272.49,853 1272.78,851.176 1272.97,849.448C1273.16,847.72 1273.26,846.376 1273.26,845.416C1273.26,839.464 1271.72,835.336 1268.65,833.032C1265.58,830.728 1262.17,829.096 1258.42,828.136C1254.68,827.176 1251.27,826.264 1248.2,825.4C1245.13,824.536 1243.59,822.376 1243.59,818.92C1243.59,816.616 1244.22,814.744 1245.46,813.304C1246.71,811.864 1248.2,810.712 1249.93,809.848C1251.66,808.984 1253.48,808.408 1255.4,808.12C1257.32,807.832 1259.05,807.688 1260.58,807.688L1268.36,807.688C1268.94,807.688 1269.99,807.832 1271.53,808.12C1273.06,808.408 1274.65,808.696 1276.28,808.984C1277.91,809.272 1279.5,809.512 1281.03,809.704C1282.57,809.896 1283.72,809.992 1284.49,809.992L1292.55,809.992L1303.78,807.688C1306.09,807.688 1308.78,808.36 1311.85,809.704C1314.92,811.048 1316.46,813.352 1316.46,816.616C1316.46,817.768 1316.41,818.824 1316.31,819.784C1316.22,820.744 1315.78,821.224 1315.02,821.224C1313.29,821.224 1311.61,821.704 1309.98,822.664C1308.34,823.624 1306.81,824.824 1305.37,826.264C1303.93,827.704 1302.78,829.432 1301.91,831.448C1301.05,833.464 1300.62,835.432 1300.62,837.352L1300.62,842.824C1300.62,844.744 1301.1,847.912 1302.06,852.328C1302.63,854.632 1303.21,857.128 1303.78,859.816L1303.78,862.12C1304.17,863.272 1304.65,864.232 1305.22,865C1305.61,865.768 1306.09,866.44 1306.66,867.016C1307.24,867.592 1307.82,867.88 1308.39,867.88C1309.35,867.88 1310.17,867.496 1310.84,866.728C1311.51,865.96 1312.33,865 1313.29,863.848C1316.55,859.624 1320.3,853.48 1324.52,845.416C1326.63,841.768 1328.65,838.072 1330.57,834.328C1332.49,830.584 1334.5,827.08 1336.62,823.816C1339.3,818.824 1341.99,814.888 1344.68,812.008C1347.37,809.128 1349.67,807.688 1351.59,807.688L1355.05,807.688C1356.58,807.688 1357.69,807.304 1358.36,806.536C1359.03,805.768 1360.52,805.384 1362.82,805.384L1387.02,805.384Z" style="fill:rgb(17,97,39);fill-rule:nonzero;stroke:black;stroke-width:4.94px;stroke-linecap:butt;stroke-miterlimit:2;"/>
        <path d="M1484.07,831.016C1486.76,831.016 1490.07,831.112 1494.01,831.304C1497.94,831.496 1501.26,832.168 1503.94,833.32C1506.82,833.32 1508.7,834.472 1509.56,836.776C1510.42,839.08 1511.53,841.672 1512.87,844.552C1513.64,845.32 1514.55,846.376 1515.61,847.72C1516.66,849.064 1517.62,850.456 1518.49,851.896C1519.35,853.336 1520.07,854.824 1520.65,856.36C1521.22,857.896 1521.51,859.24 1521.51,860.392L1519.21,886.024C1519.21,891.4 1518.06,897.352 1515.75,903.88C1513.45,910.408 1510.09,916.264 1505.67,921.448C1504.14,922.984 1503.03,924.664 1502.36,926.488C1501.69,928.312 1501.02,930.184 1500.34,932.104C1499.67,934.024 1498.9,935.992 1498.04,938.008C1497.18,940.024 1495.98,941.992 1494.44,943.912C1493.29,945.256 1491.99,946.888 1490.55,948.808C1489.11,950.728 1487.58,952.696 1485.94,954.712C1484.31,956.728 1482.58,958.552 1480.76,960.184C1478.94,961.816 1477.06,963.016 1475.14,963.784C1472.26,965.32 1469.86,966.664 1467.94,967.816C1466.02,968.968 1464.3,969.928 1462.76,970.696C1461.22,971.464 1459.64,971.992 1458.01,972.28C1456.38,972.568 1454.6,972.712 1452.68,972.712C1449.8,972.712 1447.11,972.04 1444.62,970.696C1442.12,969.352 1439.96,967.576 1438.14,965.368C1436.31,963.16 1434.82,960.664 1433.67,957.88C1432.52,955.096 1431.94,952.264 1431.94,949.384L1431.94,930.088C1431.94,928.936 1431.56,927.88 1430.79,926.92C1430.02,925.96 1429.64,923.272 1429.64,918.856C1429.45,913.288 1430.79,906.568 1433.67,898.696C1436.55,890.824 1439.96,883.096 1443.9,875.512C1447.83,867.928 1451.77,861.208 1455.7,855.352C1459.64,849.496 1462.66,845.896 1464.78,844.552C1466.89,843.208 1468.66,841.72 1470.1,840.088C1471.54,838.456 1472.94,836.968 1474.28,835.624C1475.62,834.28 1477.02,833.176 1478.46,832.312C1479.9,831.448 1481.77,831.016 1484.07,831.016ZM1485.51,863.848C1482.44,863.848 1479.32,865.144 1476.15,867.736C1472.98,870.328 1470.06,873.304 1467.37,876.664C1464.68,880.024 1462.28,883.384 1460.17,886.744C1458.06,890.104 1456.62,892.552 1455.85,894.088L1452.97,905.032C1452.2,907.72 1451.58,910.312 1451.1,912.808C1450.62,915.304 1450.38,916.84 1450.38,917.416L1450.38,922.888C1451.14,923.464 1451.82,924.616 1452.39,926.344C1452.97,928.072 1453.69,929.8 1454.55,931.528C1455.42,933.256 1456.42,934.792 1457.58,936.136C1458.73,937.48 1460.36,938.152 1462.47,938.152C1466.31,936.424 1469.86,934.696 1473.13,932.968C1475.82,931.432 1478.46,929.8 1481.05,928.072C1483.64,926.344 1485.42,924.616 1486.38,922.888C1487.53,920.2 1488.82,917.032 1490.26,913.384C1491.7,909.736 1493.1,906.28 1494.44,903.016C1494.06,901.48 1494.49,899.944 1495.74,898.408C1496.98,896.872 1497.61,895.432 1497.61,894.088L1497.61,886.024C1497.61,885.064 1497.37,883.384 1496.89,880.984C1496.41,878.584 1495.64,876.088 1494.58,873.496C1493.53,870.904 1492.23,868.648 1490.7,866.728C1489.16,864.808 1487.43,863.848 1485.51,863.848Z" style="fill:rgb(17,97,39);fill-rule:nonzero;stroke:black;stroke-width:4.94px;stroke-linecap:butt;stroke-miterlimit:2;"/>
        <path d="M1592.94,830.152C1593.7,830.152 1595.14,830.968 1597.26,832.6C1599.37,834.232 1601.67,836.104 1604.17,838.216C1606.09,839.752 1607.82,841.048 1609.35,842.104C1610.89,843.16 1612.04,843.688 1612.81,843.688C1613.77,844.648 1614.78,845.176 1615.83,845.272C1616.89,845.368 1617.99,845.416 1619.14,845.416C1620.1,845.416 1620.97,845.512 1621.74,845.704C1622.5,845.896 1623.27,846.568 1624.04,847.72C1625,847.72 1626.06,847.912 1627.21,848.296C1628.36,848.68 1629.7,849.064 1631.24,849.448C1632.39,850.216 1633.69,850.936 1635.13,851.608C1636.57,852.28 1637.67,852.616 1638.44,852.616C1640.94,852.616 1643.29,852.28 1645.5,851.608C1647.7,850.936 1649.86,850.216 1651.98,849.448C1654.09,849.064 1656.1,848.68 1658.02,848.296C1659.94,847.912 1661.96,847.72 1664.07,847.72C1668.49,847.72 1671.08,848.872 1671.85,851.176C1672.62,853.48 1673,856.84 1673,861.256L1673,867.016C1673,871.048 1671.56,874.024 1668.68,875.944C1665.8,877.864 1662.44,879.4 1658.6,880.552C1654.18,882.088 1649.77,883.096 1645.35,883.576C1640.94,884.056 1636.81,884.872 1632.97,886.024C1631.43,886.984 1630.09,888.136 1628.94,889.48C1627.78,890.824 1626.54,892.216 1625.19,893.656C1623.85,895.096 1622.41,896.44 1620.87,897.688C1619.34,898.936 1617.42,899.848 1615.11,900.424C1613,901.96 1611.03,903.592 1609.21,905.32C1607.38,907.048 1605.56,908.872 1603.74,910.792C1601.91,912.712 1599.94,914.584 1597.83,916.408C1595.72,918.232 1593.22,919.912 1590.34,921.448C1590.34,922.024 1590.01,922.552 1589.34,923.032C1588.66,923.512 1587.94,923.944 1587.18,924.328C1586.41,924.712 1585.69,925.192 1585.02,925.768C1584.34,926.344 1584.01,927.016 1584.01,927.784C1584.01,928.36 1585.54,929.752 1588.62,931.96C1591.69,934.168 1595.19,936.424 1599.13,938.728C1603.06,941.032 1606.9,943.144 1610.65,945.064C1614.39,946.984 1617.03,947.944 1618.57,947.944C1619.14,948.52 1620.01,948.856 1621.16,948.952C1622.31,949.048 1623.46,949 1624.62,948.808C1625.96,948.616 1627.4,948.328 1628.94,947.944C1633.16,947.944 1636.52,946.984 1639.02,945.064C1641.51,943.144 1643.77,941.032 1645.78,938.728C1647.8,936.424 1649.91,934.312 1652.12,932.392C1654.33,930.472 1657.26,929.512 1660.9,929.512C1663.59,929.512 1665.75,929.848 1667.38,930.52C1669.02,931.192 1669.83,933.736 1669.83,938.152C1669.06,942.76 1668.3,946.984 1667.53,950.824C1666.76,954.088 1665.8,957.256 1664.65,960.328C1663.5,963.4 1662.25,965.32 1660.9,966.088C1656.49,969.352 1652.12,971.8 1647.8,973.432C1643.48,975.064 1638.54,976.648 1632.97,978.184L1624.04,978.184L1616.84,977.32C1616.07,977.512 1615.3,977.704 1614.54,977.896C1613.77,978.088 1612.95,978.184 1612.09,978.184L1609.64,978.184C1603.69,973.576 1597.83,969.352 1592.07,965.512C1587.08,962.248 1581.8,959.08 1576.23,956.008C1570.66,952.936 1565.77,950.728 1561.54,949.384L1555.21,949.384C1552.52,949.384 1550.31,949.864 1548.58,950.824C1546.86,951.784 1545.27,952.792 1543.83,953.848C1542.39,954.904 1541.05,955.912 1539.8,956.872C1538.55,957.832 1537.26,958.312 1535.91,958.312C1531.5,958.312 1528.14,957.112 1525.83,954.712C1523.53,952.312 1522.38,949.48 1522.38,946.216C1522.38,943.336 1522.71,940.408 1523.38,937.432C1524.06,934.456 1526.41,930.952 1530.44,926.92C1531.78,926.152 1533.46,925.528 1535.48,925.048C1537.5,924.568 1539.56,924.232 1541.67,924.04C1543.78,923.848 1545.9,923.752 1548.01,923.752L1553.48,923.752C1557.51,920.488 1561.45,918.232 1565.29,916.984C1569.13,915.736 1572.39,914.536 1575.08,913.384C1579.5,908.968 1583.91,904.984 1588.33,901.432C1592.74,897.88 1597.16,893.896 1601.58,889.48C1602.92,886.6 1604.6,884.296 1606.62,882.568C1608.63,880.84 1609.64,879.4 1609.64,878.248C1609.64,876.52 1609.16,875.128 1608.2,874.072C1607.24,873.016 1606.14,872.2 1604.89,871.624C1603.64,871.048 1602.39,870.664 1601.14,870.472C1599.9,870.28 1598.98,870.184 1598.41,870.184L1596.1,870.184C1594.95,869.8 1593.9,869.32 1592.94,868.744C1591.98,868.36 1590.97,867.976 1589.91,867.592C1588.86,867.208 1587.94,867.016 1587.18,867.016C1586.22,867.016 1584.82,866.872 1583,866.584C1581.18,866.296 1579.21,865.96 1577.1,865.576C1574.79,865 1572.3,864.424 1569.61,863.848C1565.19,863.848 1561.5,865.192 1558.52,867.88C1555.54,870.568 1552.66,873.496 1549.88,876.664C1547.1,879.832 1544.07,882.76 1540.81,885.448C1537.54,888.136 1533.51,889.48 1528.71,889.48C1527.18,889.48 1526.26,888.808 1525.98,887.464C1525.69,886.12 1525.54,884.872 1525.54,883.72L1525.54,880.552C1525.54,875.56 1527.51,870.136 1531.45,864.28C1535.38,858.424 1540.33,852.952 1546.28,847.864C1552.23,842.776 1558.62,838.552 1565.43,835.192C1572.25,831.832 1578.44,830.152 1584.01,830.152L1592.94,830.152Z" style="fill:rgb(17,97,39);fill-rule:nonzero;stroke:black;stroke-width:4.94px;stroke-linecap:butt;stroke-miterlimit:2;"/>
        <path d="M1771.21,828.424C1775.24,828.424 1778.12,829.576 1779.85,831.88C1781.58,834.184 1782.44,837.352 1782.44,841.384C1782.44,842.152 1782.15,843.832 1781.58,846.424C1781,849.016 1780.28,851.896 1779.42,855.064C1778.55,858.232 1777.64,861.448 1776.68,864.712C1775.72,867.976 1774.95,870.568 1774.38,872.488C1774.38,874.024 1774.28,875.608 1774.09,877.24C1773.9,878.872 1773.22,881.032 1772.07,883.72C1770.54,884.872 1769.77,886.744 1769.77,889.336L1769.77,894.952L1768.9,910.216L1768.9,921.448C1768.9,922.024 1768.95,923.032 1769.05,924.472C1769.14,925.912 1769.34,927.352 1769.62,928.792C1769.91,930.232 1770.44,931.48 1771.21,932.536C1771.98,933.592 1773.03,934.12 1774.38,934.12L1778.41,927.784C1779.56,926.824 1780.9,925.624 1782.44,924.184C1783.98,922.744 1785.51,921.352 1787.05,920.008C1788.78,918.472 1790.5,916.84 1792.23,915.112C1793.38,915.112 1794.34,915.592 1795.11,916.552C1795.88,917.512 1796.26,918.568 1796.26,919.72L1795.11,922.024C1794.34,923.56 1793.58,924.712 1792.81,925.48C1791.46,929.32 1789.74,932.632 1787.62,935.416C1785.51,938.2 1783.21,940.888 1780.71,943.48C1778.22,946.072 1775.67,948.712 1773.08,951.4C1770.49,954.088 1768.04,957.16 1765.74,960.616L1759.4,969.544C1759.4,971.272 1758.87,973.048 1757.82,974.872C1756.76,976.696 1755.51,978.136 1754.07,979.192C1752.63,980.248 1751.1,980.728 1749.46,980.632C1747.83,980.536 1746.54,979.432 1745.58,977.32C1744.42,973.864 1743.85,970.456 1743.85,967.096C1743.85,963.736 1744.14,960.472 1744.71,957.304C1745.29,954.136 1745.86,951.112 1746.44,948.232C1747.02,945.352 1747.3,942.568 1747.3,939.88L1747.3,923.752C1747.3,922.792 1746.63,922.12 1745.29,921.736C1744.52,921.544 1743.85,921.448 1743.27,921.448C1742.7,921.448 1741.26,923.128 1738.95,926.488C1736.65,929.848 1734.01,933.688 1731.03,938.008C1728.06,942.328 1725.03,946.696 1721.96,951.112C1718.89,955.528 1716.39,958.696 1714.47,960.616C1713.9,961.384 1712.98,962.488 1711.74,963.928C1710.49,965.368 1709.14,966.76 1707.7,968.104C1706.26,969.448 1704.68,970.648 1702.95,971.704C1701.22,972.76 1699.69,973.288 1698.34,973.288C1695.66,973.288 1693.45,972.328 1691.72,970.408C1689.99,968.488 1688.65,966.232 1687.69,963.64C1686.73,961.048 1686.01,958.456 1685.53,955.864C1685.05,953.272 1684.81,951.4 1684.81,950.248L1683.94,929.512L1687.98,895.816C1687.98,895.24 1688.26,893.896 1688.84,891.784C1689.42,889.672 1690.18,887.368 1691.14,884.872C1692.1,882.376 1693.21,879.928 1694.46,877.528C1695.7,875.128 1697,873.16 1698.34,871.624C1703.91,866.44 1709.29,860.104 1714.47,852.616C1716.97,849.16 1719.37,846.664 1721.67,845.128C1723.98,843.592 1726.28,842.392 1728.58,841.528C1730.89,840.664 1733.19,839.992 1735.5,839.512C1737.8,839.032 1740.39,838.024 1743.27,836.488C1744.42,836.488 1745.91,835.864 1747.74,834.616C1749.56,833.368 1751.24,832.168 1752.78,831.016L1765.74,831.016L1771.21,828.424ZM1734.34,860.392C1730.89,863.272 1727.62,866.584 1724.55,870.328C1721.48,874.072 1718.79,877.864 1716.49,881.704C1714.18,885.544 1712.36,889.144 1711.02,892.504C1709.67,895.864 1709,898.504 1709,900.424C1709,901.384 1708.9,903.16 1708.71,905.752C1708.52,908.344 1708.62,911.032 1709,913.816C1709.38,916.6 1710.1,919.096 1711.16,921.304C1712.22,923.512 1714.09,924.616 1716.78,924.616C1719.27,924.616 1722.2,922.408 1725.56,917.992C1728.92,913.576 1732.09,908.584 1735.06,903.016C1738.04,897.448 1740.54,892.264 1742.55,887.464C1744.57,882.664 1745.58,879.784 1745.58,878.824C1745.58,878.056 1745.67,876.184 1745.86,873.208C1746.06,870.232 1745.91,867.352 1745.43,864.568C1744.95,861.784 1743.9,859.768 1742.26,858.52C1740.63,857.272 1737.99,857.896 1734.34,860.392Z" style="fill:rgb(17,97,39);fill-rule:nonzero;stroke:black;stroke-width:4.94px;stroke-linecap:butt;stroke-miterlimit:2;"/>
        <path d="M1837.16,829.288C1839.27,828.904 1840.66,829.192 1841.34,830.152C1842.01,831.112 1843.59,832.168 1846.09,833.32C1848.2,834.472 1850.02,835.816 1851.56,837.352C1853.1,838.888 1853.86,840.712 1853.86,842.824C1853.67,843.784 1853.48,844.84 1853.29,845.992C1852.9,848.488 1853.1,850.888 1853.86,853.192C1853.86,854.92 1853.53,856.984 1852.86,859.384C1852.18,861.784 1852.04,863.752 1852.42,865.288C1852.81,866.056 1853.38,866.824 1854.15,867.592C1854.73,868.168 1855.35,868.696 1856.02,869.176C1856.7,869.656 1857.32,869.704 1857.9,869.32C1859.82,868.936 1861.88,867.112 1864.09,863.848C1866.3,860.584 1868.46,856.936 1870.57,852.904C1872.68,848.872 1874.79,844.936 1876.9,841.096C1879.02,837.256 1880.94,834.664 1882.66,833.32L1891.59,831.016C1892.74,830.632 1894.04,830.536 1895.48,830.728C1896.92,830.92 1898.02,831.016 1898.79,831.016C1902.44,833.128 1904.74,836.056 1905.7,839.8C1906.66,843.544 1907.34,846.472 1907.72,848.584C1907.91,851.272 1907,854.824 1904.98,859.24C1902.97,863.656 1900.42,867.304 1897.35,870.184C1896.01,870.952 1894.76,871.576 1893.61,872.056C1892.46,872.536 1891.3,872.968 1890.15,873.352C1889.19,873.352 1888.47,873.304 1887.99,873.208C1887.51,873.112 1886.89,872.872 1886.12,872.488C1885.16,872.104 1884.25,871.864 1883.38,871.768C1882.52,871.672 1881.51,871.624 1880.36,871.624C1877.86,871.624 1875.51,872.584 1873.3,874.504C1871.1,876.424 1868.94,878.44 1866.82,880.552C1863.56,884.584 1861.02,889.144 1859.19,894.232C1857.37,899.32 1856.46,904.072 1856.46,908.488C1855.11,909.832 1853.53,911.512 1851.7,913.528C1849.88,915.544 1848.49,917.896 1847.53,920.584C1846.38,923.272 1845.85,926.056 1845.94,928.936C1846.04,931.816 1845.51,934.6 1844.36,937.288C1844.55,939.592 1844.55,942.232 1844.36,945.208C1844.17,948.184 1843.83,951.304 1843.35,954.568C1842.87,957.832 1842.25,960.952 1841.48,963.928C1840.71,966.904 1839.85,969.544 1838.89,971.848C1837.54,972.808 1835.91,973.672 1833.99,974.44C1832.07,975.208 1830.06,975.784 1827.94,976.168C1825.64,976.744 1823.14,977.128 1820.46,977.32C1819.5,977.32 1818.25,976.552 1816.71,975.016C1815.94,974.248 1815.27,973.48 1814.7,972.712L1810.66,964.648C1810.47,963.304 1810.66,961 1811.24,957.736C1811.82,954.472 1812.49,951.16 1813.26,947.8C1814.02,944.44 1814.74,941.416 1815.42,938.728C1816.09,936.04 1816.42,934.504 1816.42,934.12C1820.65,927.784 1823.43,921.112 1824.78,914.104C1826.12,907.096 1827.56,900.136 1829.1,893.224L1826.79,874.216C1825.83,871.72 1824.63,870.472 1823.19,870.472C1821.75,870.472 1820.26,870.664 1818.73,871.048C1815.66,871.624 1813.45,872.44 1812.1,873.496C1810.76,874.552 1809.61,875.656 1808.65,876.808C1807.69,877.96 1806.63,879.064 1805.48,880.12C1804.33,881.176 1802.31,881.896 1799.43,882.28C1797.9,882.28 1796.94,881.32 1796.55,879.4C1796.17,877.48 1795.78,875.752 1795.4,874.216C1795.02,872.488 1795.3,870.808 1796.26,869.176C1797.22,867.544 1798.52,866.008 1800.15,864.568C1801.78,863.128 1803.66,861.688 1805.77,860.248C1807.88,858.808 1809.8,857.32 1811.53,855.784C1813.83,853.288 1815.85,850.552 1817.58,847.576C1819.3,844.6 1821.03,841.816 1822.76,839.224C1824.49,836.632 1826.46,834.424 1828.66,832.6C1830.87,830.776 1833.7,829.672 1837.16,829.288Z" style="fill:rgb(17,97,39);fill-rule:nonzero;stroke:black;stroke-width:4.94px;stroke-linecap:butt;stroke-miterlimit:2;"/>
        <path d="M1963.88,830.152C1964.65,830.152 1966.09,830.968 1968.2,832.6C1970.31,834.232 1972.62,836.104 1975.11,838.216C1977.03,839.752 1978.76,841.048 1980.3,842.104C1981.83,843.16 1982.98,843.688 1983.75,843.688C1984.71,844.648 1985.72,845.176 1986.78,845.272C1987.83,845.368 1988.94,845.416 1990.09,845.416C1991.05,845.416 1991.91,845.512 1992.68,845.704C1993.45,845.896 1994.22,846.568 1994.98,847.72C1995.94,847.72 1997,847.912 1998.15,848.296C1999.3,848.68 2000.65,849.064 2002.18,849.448C2003.34,850.216 2004.63,850.936 2006.07,851.608C2007.51,852.28 2008.62,852.616 2009.38,852.616C2011.88,852.616 2014.23,852.28 2016.44,851.608C2018.65,850.936 2020.81,850.216 2022.92,849.448C2025.03,849.064 2027.05,848.68 2028.97,848.296C2030.89,847.912 2032.9,847.72 2035.02,847.72C2039.43,847.72 2042.02,848.872 2042.79,851.176C2043.56,853.48 2043.94,856.84 2043.94,861.256L2043.94,867.016C2043.94,871.048 2042.5,874.024 2039.62,875.944C2036.74,877.864 2033.38,879.4 2029.54,880.552C2025.13,882.088 2020.71,883.096 2016.3,883.576C2011.88,884.056 2007.75,884.872 2003.91,886.024C2002.38,886.984 2001.03,888.136 1999.88,889.48C1998.73,890.824 1997.48,892.216 1996.14,893.656C1994.79,895.096 1993.35,896.44 1991.82,897.688C1990.28,898.936 1988.36,899.848 1986.06,900.424C1983.94,901.96 1981.98,903.592 1980.15,905.32C1978.33,907.048 1976.5,908.872 1974.68,910.792C1972.86,912.712 1970.89,914.584 1968.78,916.408C1966.66,918.232 1964.17,919.912 1961.29,921.448C1961.29,922.024 1960.95,922.552 1960.28,923.032C1959.61,923.512 1958.89,923.944 1958.12,924.328C1957.35,924.712 1956.63,925.192 1955.96,925.768C1955.29,926.344 1954.95,927.016 1954.95,927.784C1954.95,928.36 1956.49,929.752 1959.56,931.96C1962.63,934.168 1966.14,936.424 1970.07,938.728C1974.01,941.032 1977.85,943.144 1981.59,945.064C1985.34,946.984 1987.98,947.944 1989.51,947.944C1990.09,948.52 1990.95,948.856 1992.1,948.952C1993.26,949.048 1994.41,949 1995.56,948.808C1996.9,948.616 1998.34,948.328 1999.88,947.944C2004.1,947.944 2007.46,946.984 2009.96,945.064C2012.46,943.144 2014.71,941.032 2016.73,938.728C2018.74,936.424 2020.86,934.312 2023.06,932.392C2025.27,930.472 2028.2,929.512 2031.85,929.512C2034.54,929.512 2036.7,929.848 2038.33,930.52C2039.96,931.192 2040.78,933.736 2040.78,938.152C2040.01,942.76 2039.24,946.984 2038.47,950.824C2037.7,954.088 2036.74,957.256 2035.59,960.328C2034.44,963.4 2033.19,965.32 2031.85,966.088C2027.43,969.352 2023.06,971.8 2018.74,973.432C2014.42,975.064 2009.48,976.648 2003.91,978.184L1994.98,978.184L1987.78,977.32C1987.02,977.512 1986.25,977.704 1985.48,977.896C1984.71,978.088 1983.9,978.184 1983.03,978.184L1980.58,978.184C1974.63,973.576 1968.78,969.352 1963.02,965.512C1958.02,962.248 1952.74,959.08 1947.18,956.008C1941.61,952.936 1936.71,950.728 1932.49,949.384L1926.15,949.384C1923.46,949.384 1921.26,949.864 1919.53,950.824C1917.8,951.784 1916.22,952.792 1914.78,953.848C1913.34,954.904 1911.99,955.912 1910.74,956.872C1909.5,957.832 1908.2,958.312 1906.86,958.312C1902.44,958.312 1899.08,957.112 1896.78,954.712C1894.47,952.312 1893.32,949.48 1893.32,946.216C1893.32,943.336 1893.66,940.408 1894.33,937.432C1895,934.456 1897.35,930.952 1901.38,926.92C1902.73,926.152 1904.41,925.528 1906.42,925.048C1908.44,924.568 1910.5,924.232 1912.62,924.04C1914.73,923.848 1916.84,923.752 1918.95,923.752L1924.42,923.752C1928.46,920.488 1932.39,918.232 1936.23,916.984C1940.07,915.736 1943.34,914.536 1946.02,913.384C1950.44,908.968 1954.86,904.984 1959.27,901.432C1963.69,897.88 1968.1,893.896 1972.52,889.48C1973.86,886.6 1975.54,884.296 1977.56,882.568C1979.58,880.84 1980.58,879.4 1980.58,878.248C1980.58,876.52 1980.1,875.128 1979.14,874.072C1978.18,873.016 1977.08,872.2 1975.83,871.624C1974.58,871.048 1973.34,870.664 1972.09,870.472C1970.84,870.28 1969.93,870.184 1969.35,870.184L1967.05,870.184C1965.9,869.8 1964.84,869.32 1963.88,868.744C1962.92,868.36 1961.91,867.976 1960.86,867.592C1959.8,867.208 1958.89,867.016 1958.12,867.016C1957.16,867.016 1955.77,866.872 1953.94,866.584C1952.12,866.296 1950.15,865.96 1948.04,865.576C1945.74,865 1943.24,864.424 1940.55,863.848C1936.14,863.848 1932.44,865.192 1929.46,867.88C1926.49,870.568 1923.61,873.496 1920.82,876.664C1918.04,879.832 1915.02,882.76 1911.75,885.448C1908.49,888.136 1904.46,889.48 1899.66,889.48C1898.12,889.48 1897.21,888.808 1896.92,887.464C1896.63,886.12 1896.49,884.872 1896.49,883.72L1896.49,880.552C1896.49,875.56 1898.46,870.136 1902.39,864.28C1906.33,858.424 1911.27,852.952 1917.22,847.864C1923.18,842.776 1929.56,838.552 1936.38,835.192C1943.19,831.832 1949.38,830.152 1954.95,830.152L1963.88,830.152Z" style="fill:rgb(17,97,39);fill-rule:nonzero;stroke:black;stroke-width:4.94px;stroke-linecap:butt;stroke-miterlimit:2;"/>
        <path d="M2115.08,831.016C2119.11,831.016 2122.52,831.736 2125.3,833.176C2128.09,834.616 2130.34,836.584 2132.07,839.08C2133.8,841.576 2135.05,844.456 2135.82,847.72C2136.58,850.984 2136.87,854.44 2136.68,858.088C2136.68,863.272 2134.76,867.448 2130.92,870.616C2127.08,873.784 2123.14,876.52 2119.11,878.824C2115.46,881.32 2111.58,883.528 2107.45,885.448C2103.32,887.368 2099.48,889.48 2095.93,891.784C2092.38,894.088 2089.4,896.776 2087,899.848C2084.6,902.92 2083.3,906.856 2083.11,911.656L2083.11,923.752C2082.73,927.016 2083.4,930.232 2085.13,933.4C2086.86,936.568 2089.06,938.152 2091.75,938.152C2091.94,938.344 2092.71,938.056 2094.06,937.288C2095.4,936.52 2096.89,935.608 2098.52,934.552C2100.15,933.496 2101.78,932.392 2103.42,931.24C2105.05,930.088 2106.25,929.224 2107.02,928.648C2109.9,927.304 2112.15,926.2 2113.78,925.336C2115.42,924.472 2116.62,924.232 2117.38,924.616C2118.73,924.616 2119.88,924.808 2120.84,925.192C2121.8,925.576 2122.28,927.016 2122.28,929.512C2121.9,933.736 2120.07,937.816 2116.81,941.752C2113.54,945.688 2109.99,949.336 2106.15,952.696C2102.31,956.056 2098.57,958.984 2094.92,961.48C2091.27,963.976 2088.87,965.8 2087.72,966.952C2084.46,969.832 2081.43,971.368 2078.65,971.56C2075.86,971.752 2073.03,971.848 2070.15,971.848C2068.42,971.656 2066.65,970.888 2064.82,969.544C2063,968.2 2061.37,966.616 2059.93,964.792C2058.49,962.968 2057.38,961.096 2056.62,959.176C2055.85,957.256 2055.56,955.624 2055.75,954.28L2055.75,949.384C2055.75,948.04 2055.37,946.6 2054.6,945.064C2054.22,944.296 2053.83,943.624 2053.45,943.048L2054.31,937.288L2054.31,932.68C2054.31,931.912 2054.5,929.848 2054.89,926.488C2055.27,923.128 2055.75,919.48 2056.33,915.544C2056.9,911.608 2057.43,907.864 2057.91,904.312C2058.39,900.76 2058.73,898.408 2058.92,897.256C2059.69,896.68 2060.07,896.104 2060.07,895.528C2060.07,894.952 2059.98,894.376 2059.78,893.8C2059.59,893.224 2059.5,892.504 2059.5,891.64C2059.5,890.776 2059.88,889.768 2060.65,888.616C2060.65,886.312 2061.13,883.912 2062.09,881.416C2062.66,880.072 2063.24,878.728 2063.82,877.384L2067.85,867.88C2068.23,863.656 2070.25,859.288 2073.9,854.776C2077.54,850.264 2081.82,846.184 2086.71,842.536C2091.61,838.888 2096.65,835.96 2101.83,833.752C2107.02,831.544 2111.43,830.632 2115.08,831.016ZM2102.12,852.616C2101.16,852.616 2100.2,853.336 2099.24,854.776C2098.28,856.216 2097.32,857.8 2096.36,859.528C2095.4,861.64 2094.44,863.848 2093.48,866.152C2093.29,867.112 2093,868.216 2092.62,869.464C2092.23,870.712 2091.94,871.864 2091.75,872.92C2091.56,873.976 2091.66,874.84 2092.04,875.512C2092.42,876.184 2093.19,876.52 2094.34,876.52C2095.3,876.712 2096.74,876.52 2098.66,875.944C2100.58,875.368 2102.55,874.504 2104.57,873.352C2106.58,872.2 2108.41,870.808 2110.04,869.176C2111.67,867.544 2112.58,865.768 2112.78,863.848L2112.78,858.952C2112.78,857.992 2112.49,857.128 2111.91,856.36C2111.34,855.592 2110.66,855.016 2109.9,854.632C2109.13,854.056 2108.17,853.576 2107.02,853.192L2102.12,852.616Z" style="fill:rgb(17,97,39);fill-rule:nonzero;stroke:black;stroke-width:4.94px;stroke-linecap:butt;stroke-miterlimit:2;"/>
    </g>
</svg>
